<?xml version="1.0" standalone="no"?>
<!DOCTYPE svg PUBLIC "-//W3C//DTD SVG 20010904//EN"
 "http://www.w3.org/TR/2001/REC-SVG-20010904/DTD/svg10.dtd">
<svg version="1.0" xmlns="http://www.w3.org/2000/svg"
 width="1899.000000pt" height="2330.000000pt" viewBox="0 0 1899.000000 2330.000000"
 preserveAspectRatio="xMidYMid meet">
<metadata>
Created by potrace 1.15, written by Peter Selinger 2001-2017
</metadata>
<g transform="translate(0.000000,2330.000000) scale(0.100000,-0.100000)"
fill="#000000" stroke="none">
<path d="M16505 23290 c-4 -6 -11 -8 -16 -5 -5 4 -9 0 -9 -7 0 -8 -3 -9 -8 -3
-11 15 -30 17 -54 4 -16 -9 -22 -8 -29 2 -6 10 -9 10 -9 2 0 -6 -9 -10 -20 -8
-11 2 -20 -2 -20 -8 0 -7 -4 -6 -10 3 -5 8 -10 10 -10 5 0 -6 -22 -11 -51 -10
-28 0 -53 -4 -56 -8 -3 -5 -11 -6 -19 -3 -7 3 -16 2 -18 -3 -3 -4 -15 -7 -28
-6 -13 1 -26 -3 -30 -9 -5 -8 -8 -7 -8 2 0 9 -5 10 -17 4 -10 -5 -36 -10 -58
-11 -22 -2 -42 -7 -43 -12 -2 -6 -10 -5 -18 2 -11 9 -14 8 -14 -1 0 -8 -3 -11
-6 -8 -3 4 -19 2 -35 -2 -18 -6 -31 -5 -35 2 -5 8 -11 6 -18 -3 -11 -14 -24
-17 -76 -20 -14 -1 -34 -5 -45 -10 -36 -15 -98 -28 -107 -23 -4 3 -8 0 -8 -6
0 -6 -4 -9 -9 -5 -5 3 -12 1 -15 -4 -4 -5 -17 -8 -31 -7 -13 2 -26 -3 -29 -10
-3 -8 -12 -11 -21 -8 -8 3 -15 2 -15 -4 0 -6 -11 -9 -25 -7 -14 1 -25 -2 -25
-7 0 -5 -4 -7 -9 -4 -5 3 -12 -1 -15 -9 -4 -12 -10 -13 -25 -6 -14 8 -20 7
-24 -3 -3 -8 -16 -13 -31 -12 -14 2 -23 -1 -20 -5 5 -8 -26 -14 -49 -10 -5 1
-6 -3 -2 -9 5 -9 -22 -15 -47 -11 -5 0 -8 -3 -8 -8 0 -8 -28 -19 -55 -21 -5
-1 -20 -8 -32 -15 -12 -8 -32 -16 -43 -18 -12 -2 -26 -10 -31 -18 -5 -8 -9
-11 -9 -6 0 4 -18 -2 -40 -13 -22 -11 -40 -17 -40 -13 0 5 -5 0 -11 -9 -5 -10
-16 -15 -24 -12 -8 4 -15 1 -15 -6 0 -7 -8 -10 -20 -7 -11 3 -18 1 -15 -4 3
-4 -6 -11 -20 -15 -14 -3 -25 -10 -25 -16 0 -5 -5 -6 -10 -3 -6 3 -13 0 -16
-9 -3 -8 -12 -12 -20 -9 -8 3 -14 0 -14 -6 0 -6 -9 -11 -20 -11 -11 0 -20 -4
-20 -10 0 -5 -11 -12 -24 -16 -14 -3 -27 -12 -30 -20 -3 -8 -12 -14 -21 -14
-8 0 -33 -11 -55 -25 -22 -14 -44 -25 -49 -25 -5 0 -12 -7 -15 -16 -3 -8 -10
-12 -16 -9 -5 3 -10 1 -10 -4 0 -6 -6 -10 -12 -9 -7 2 -12 -3 -10 -10 1 -6 -1
-12 -5 -11 -16 2 -53 -14 -53 -22 0 -5 -7 -9 -15 -9 -9 0 -18 -7 -21 -15 -4
-8 -10 -13 -14 -10 -5 3 -15 -4 -24 -16 -8 -12 -19 -18 -25 -14 -6 3 -11 2
-11 -4 0 -6 -12 -17 -27 -25 -16 -8 -23 -16 -18 -16 6 0 -5 -7 -22 -15 -18 -8
-33 -19 -33 -25 0 -5 -7 -10 -16 -10 -9 0 -12 -5 -8 -12 5 -8 2 -9 -9 -5 -10
4 -17 1 -17 -6 0 -7 -18 -23 -40 -36 -21 -14 -37 -28 -34 -33 5 -7 -10 -12
-28 -9 -5 0 -8 -6 -8 -14 0 -8 -5 -15 -10 -15 -6 0 -30 -20 -54 -45 -25 -25
-47 -45 -51 -45 -3 0 -21 -16 -39 -35 -19 -19 -38 -35 -45 -35 -6 0 -11 -4
-11 -10 0 -12 -48 -60 -60 -60 -6 0 -9 -4 -8 -9 2 -5 -12 -21 -31 -35 -19 -14
-32 -26 -28 -26 4 0 -1 -8 -10 -18 -10 -11 -21 -17 -25 -15 -5 2 -8 0 -8 -6 0
-12 -78 -91 -90 -91 -5 0 -7 -7 -4 -15 4 -9 0 -15 -10 -15 -9 0 -16 -3 -16 -7
0 -7 -49 -63 -126 -145 -14 -16 -23 -28 -20 -28 3 0 -7 -13 -22 -28 -15 -16
-38 -43 -52 -62 -14 -18 -29 -38 -35 -44 -5 -6 -23 -29 -39 -51 -17 -22 -34
-43 -39 -46 -5 -4 -6 -12 -3 -18 4 -6 0 -11 -8 -11 -9 0 -16 -4 -16 -10 0 -5
-9 -20 -20 -32 -10 -13 -20 -27 -21 -33 -1 -5 -9 -16 -18 -23 -9 -8 -10 -10
-2 -6 9 5 12 3 7 -4 -4 -7 -14 -12 -22 -12 -9 0 -12 -5 -8 -11 3 -6 2 -14 -3
-18 -14 -10 -78 -115 -76 -123 2 -5 -2 -8 -8 -8 -5 0 -15 -13 -20 -30 -6 -16
-15 -30 -20 -30 -5 0 -9 -7 -9 -15 0 -8 -4 -15 -10 -15 -5 0 -10 -3 -9 -7 2
-14 -13 -53 -20 -53 -4 0 -13 -16 -21 -35 -8 -19 -17 -35 -21 -35 -6 0 -21
-34 -23 -55 -1 -5 -7 -16 -13 -23 -7 -7 -13 -20 -13 -28 0 -8 -5 -14 -12 -14
-6 0 -9 -3 -5 -6 3 -4 -1 -13 -9 -21 -8 -9 -13 -22 -10 -29 3 -7 0 -17 -7 -21
-17 -11 -39 -52 -32 -62 3 -5 -2 -12 -11 -15 -9 -3 -14 -13 -11 -20 3 -8 -1
-20 -9 -26 -8 -7 -14 -21 -14 -31 0 -11 -5 -19 -11 -19 -6 0 -9 -7 -5 -15 3
-8 1 -15 -4 -15 -6 0 -10 -7 -10 -15 0 -8 -4 -15 -10 -15 -5 0 -10 -5 -10 -11
0 -5 5 -7 11 -4 6 4 5 -2 -3 -14 -7 -12 -15 -21 -19 -21 -3 0 -6 -6 -6 -12 -1
-22 -8 -43 -16 -49 -4 -3 -9 -16 -10 -27 -1 -12 -5 -22 -9 -22 -4 0 -7 -3 -7
-7 1 -5 -4 -24 -12 -43 -7 -19 -12 -38 -11 -42 1 -5 -3 -8 -10 -8 -6 0 -8 -3
-5 -7 4 -3 1 -13 -6 -21 -10 -13 -9 -14 3 -7 11 6 10 3 -3 -12 -9 -11 -14 -23
-10 -26 3 -4 0 -7 -8 -7 -11 0 -11 -2 1 -10 10 -6 11 -10 3 -10 -7 0 -13 -8
-13 -17 -1 -10 -7 -29 -15 -43 -10 -19 -11 -28 -2 -39 9 -12 9 -13 0 -8 -8 5
-15 -2 -19 -20 -4 -15 -11 -34 -17 -40 -6 -9 -5 -13 4 -13 11 0 11 -2 1 -9 -7
-4 -14 -18 -15 -29 -1 -12 -4 -22 -8 -22 -4 0 -6 -11 -4 -25 1 -14 -2 -25 -8
-25 -5 0 -7 -12 -4 -26 3 -15 0 -28 -8 -30 -7 -3 -13 -16 -14 -30 -3 -47 -4
-54 -13 -54 -5 0 -8 -12 -7 -27 2 -16 -2 -37 -8 -48 -6 -11 -8 -26 -5 -34 3
-10 0 -11 -9 -5 -12 7 -12 5 0 -9 13 -16 8 -22 -13 -18 -5 1 -4 -5 4 -13 7 -9
8 -16 3 -16 -6 0 -9 -11 -8 -25 2 -14 0 -25 -3 -25 -7 0 -13 -44 -16 -107 0
-17 -4 -29 -8 -26 -5 2 -9 -7 -9 -21 -3 -51 -4 -61 -13 -75 -7 -11 -6 -12 5
-6 12 8 12 6 1 -8 -9 -10 -13 -35 -10 -70 2 -34 -1 -53 -7 -51 -6 3 -11 -23
-12 -62 -1 -36 -7 -72 -13 -79 -8 -10 -8 -15 0 -20 8 -5 8 -11 -1 -21 -9 -11
-9 -14 0 -14 7 0 9 -5 4 -12 -7 -13 -9 -33 -14 -175 -1 -44 -6 -70 -12 -66 -6
4 -7 1 -1 -8 11 -19 12 -69 1 -93 -7 -13 -6 -16 3 -11 9 6 9 2 1 -14 -7 -12
-8 -21 -2 -21 10 0 6 -74 -5 -92 -4 -6 -3 -9 2 -5 6 3 11 -31 12 -81 5 -155 7
-177 16 -191 7 -11 6 -12 -5 -6 -12 8 -12 6 0 -8 9 -12 10 -17 2 -17 -7 0 -9
-5 -6 -10 4 -6 9 -8 13 -6 4 2 6 -22 6 -55 -1 -32 2 -59 6 -59 5 0 6 -8 3 -19
-3 -10 0 -22 7 -26 8 -5 8 -10 0 -20 -7 -9 -8 -15 -1 -19 6 -4 8 -13 4 -21 -3
-8 -1 -15 4 -15 5 0 9 -8 10 -17 1 -10 2 -35 4 -55 1 -21 6 -38 11 -38 5 0 9
-10 8 -22 -1 -13 -1 -26 0 -30 1 -5 4 -12 5 -18 1 -5 3 -11 4 -12 2 -2 5 -14
7 -28 2 -13 10 -28 17 -32 9 -6 9 -8 0 -8 -10 0 -10 -6 0 -27 6 -16 14 -30 17
-33 3 -3 6 -18 7 -35 1 -16 7 -31 12 -33 5 -2 6 -12 3 -24 -3 -14 -1 -19 6
-15 6 4 9 0 8 -10 -2 -10 0 -20 5 -23 4 -3 10 -18 13 -34 3 -15 10 -33 15 -40
6 -7 8 -16 4 -19 -3 -4 1 -9 10 -13 9 -3 14 -14 12 -25 -3 -12 0 -17 7 -13 7
5 9 1 5 -9 -3 -10 -2 -17 4 -17 6 0 8 -4 5 -9 -4 -5 -2 -11 3 -13 5 -1 11 -10
13 -18 2 -8 12 -23 22 -32 10 -10 14 -18 7 -18 -8 0 -9 -4 -1 -12 18 -22 55
-82 67 -110 7 -16 17 -28 23 -28 5 0 10 -7 10 -15 0 -9 7 -18 16 -22 13 -5 13
-7 2 -14 -10 -7 -8 -9 6 -9 11 0 17 -3 13 -6 -3 -3 7 -19 23 -34 16 -15 26
-30 23 -33 -2 -3 5 -11 17 -17 12 -6 20 -13 18 -16 -6 -6 99 -114 111 -114 5
0 13 -9 16 -20 3 -11 12 -20 20 -20 7 0 16 -7 19 -16 4 -9 9 -14 13 -10 4 3
14 -5 23 -20 10 -14 21 -25 25 -24 3 1 20 -10 36 -24 16 -14 33 -26 39 -26 5
0 10 -3 10 -8 0 -4 14 -13 30 -20 17 -8 28 -17 25 -22 -3 -4 6 -11 20 -14 14
-4 25 -11 25 -16 0 -6 9 -10 20 -10 11 0 20 -7 20 -16 0 -8 5 -12 10 -9 6 3
10 1 10 -5 0 -6 4 -9 8 -6 5 3 24 -5 43 -16 19 -12 41 -23 49 -24 8 -2 16 -8
18 -14 2 -5 8 -8 13 -4 5 3 9 0 9 -5 0 -6 9 -11 20 -11 11 0 20 -4 20 -8 0 -5
7 -9 15 -10 8 -1 22 -3 30 -4 8 -1 15 -5 15 -10 0 -4 7 -8 15 -8 9 0 30 -7 47
-16 18 -9 27 -11 23 -4 -4 7 4 5 17 -4 14 -9 28 -13 31 -9 4 3 7 1 7 -5 0 -7
5 -12 11 -12 5 0 8 4 4 9 -3 5 7 3 22 -4 16 -8 46 -15 68 -16 22 -1 45 -6 52
-11 7 -5 14 -5 18 2 3 6 12 7 18 3 17 -10 47 -11 47 -1 0 5 6 6 12 2 19 -12
48 -12 48 0 0 7 3 7 8 1 10 -14 52 -15 52 -2 0 8 3 8 11 0 7 -7 21 -8 40 -3
17 5 29 5 29 0 0 -6 10 -6 25 0 16 6 26 6 31 -1 3 -6 12 -3 21 8 8 10 12 13 9
7 -4 -8 3 -11 19 -10 14 0 25 4 25 8 0 3 9 4 20 1 11 -3 27 0 35 7 8 7 15 8
15 3 0 -11 29 -11 46 0 10 6 30 10 104 21 9 1 20 5 25 8 6 3 18 4 28 3 9 -2
17 1 17 6 0 5 9 9 19 9 11 0 22 6 24 13 4 9 6 8 6 -2 1 -9 5 -10 14 -4 6 6 26
14 42 18 44 12 45 12 50 15 3 1 9 3 14 4 5 0 13 4 17 9 4 4 16 7 26 7 10 0 18
4 18 10 0 5 7 7 15 4 8 -4 15 -1 15 6 0 6 5 8 10 5 6 -3 10 -1 10 5 0 6 4 9 8
6 5 -3 21 2 36 9 16 8 32 12 37 9 5 -3 9 -1 9 5 0 10 38 27 53 23 4 -1 7 3 7
9 0 5 5 7 10 4 6 -3 10 -1 10 5 0 6 5 8 10 5 6 -3 10 -2 10 3 0 5 14 12 31 16
20 4 28 10 23 17 -4 7 -3 9 3 6 11 -7 83 19 83 29 0 3 -5 2 -12 -2 -7 -4 -8
-3 -4 5 4 6 12 9 17 5 5 -3 16 0 24 6 8 6 18 9 24 6 5 -3 12 1 15 10 4 9 13
14 21 10 8 -3 15 -2 15 3 0 10 85 54 104 54 8 0 12 6 8 15 -4 11 -1 14 11 9 9
-3 17 -2 17 4 0 6 5 7 10 4 6 -3 10 -1 10 4 0 6 7 11 15 11 8 0 15 5 15 11 0
5 5 7 10 4 6 -3 10 -2 10 4 0 6 11 13 25 17 14 3 25 10 25 14 0 7 15 13 48 20
4 1 11 8 15 16 4 8 15 14 22 14 8 0 15 5 15 10 0 6 6 10 14 10 7 0 19 7 26 15
7 8 15 13 19 10 4 -2 13 5 21 15 8 10 17 17 22 14 4 -3 8 0 8 7 0 7 3 10 6 6
4 -3 13 1 21 9 8 8 20 11 26 7 7 -3 9 -3 5 2 -8 9 31 42 45 37 4 -1 7 3 7 9 0
5 5 7 10 4 6 -3 10 1 10 10 0 9 5 13 10 10 6 -3 10 -1 10 4 0 6 7 11 15 11 8
0 15 7 15 16 0 8 5 12 10 9 6 -3 16 0 24 7 7 7 24 20 36 28 13 8 30 23 39 33
8 9 21 17 28 17 7 0 13 5 13 10 0 6 7 10 15 10 7 0 19 8 24 18 6 9 11 13 11 7
0 -5 7 1 16 13 8 12 19 22 24 22 9 0 43 26 76 58 8 7 14 11 14 7 0 -3 13 7 28
22 38 38 81 73 88 73 4 0 18 12 32 28 14 15 27 25 30 22 2 -3 10 6 17 20 7 14
16 24 19 23 14 -7 27 -2 21 7 -3 6 -1 10 4 10 14 0 57 43 53 53 -1 5 2 6 7 3
5 -4 19 6 31 21 12 16 24 26 27 25 2 -2 32 22 66 55 34 32 65 57 69 55 5 -1 7
4 5 11 -1 6 4 11 11 10 6 -2 12 2 12 7 0 6 9 19 20 30 11 11 20 18 20 15 0 -2
35 30 78 73 43 42 77 80 75 85 -2 4 1 7 7 7 17 0 40 26 32 35 -4 5 1 5 11 2
15 -6 22 3 18 26 0 4 6 7 14 7 8 0 15 6 15 14 0 7 9 16 21 19 12 3 19 9 16 14
-6 10 19 34 27 26 3 -4 6 -2 6 4 0 6 23 34 50 62 28 28 50 56 50 62 0 6 5 7
10 4 6 -3 10 -2 10 3 0 14 36 52 49 52 7 0 10 4 6 9 -3 6 3 14 12 20 10 6 15
11 11 11 -4 0 16 23 43 51 27 28 49 52 49 54 0 4 44 55 83 96 9 11 17 21 17
23 0 2 18 23 40 47 22 24 40 50 40 58 0 8 3 12 6 8 9 -9 36 21 29 33 -3 5 1
10 9 10 9 0 16 4 16 8 0 10 29 49 59 78 13 13 20 24 16 24 -4 0 4 11 19 25 14
13 26 28 26 32 0 4 14 23 31 41 16 17 27 32 23 32 -4 0 1 7 12 15 10 8 15 15
10 15 -4 0 2 9 15 20 13 10 21 19 17 20 -4 0 0 9 9 19 9 11 21 17 26 14 6 -4
7 -1 2 6 -4 7 1 20 11 31 32 32 44 49 44 60 0 5 4 10 8 10 5 0 15 12 23 28 8
15 17 29 20 32 3 3 20 28 39 55 19 28 38 53 43 56 5 3 9 10 9 15 0 5 4 8 10 6
5 -1 7 2 3 8 -3 5 -2 10 4 10 6 0 8 7 5 15 -4 8 -1 15 5 15 6 0 28 28 50 63
22 34 45 67 50 73 5 7 7 15 4 18 -4 3 -1 6 5 6 7 0 12 7 12 16 0 9 5 12 12 8
8 -5 9 -2 5 9 -4 12 -1 17 10 17 9 0 13 3 10 7 -4 3 -2 12 4 20 6 7 8 13 5 13
-4 0 -1 7 6 15 33 36 39 46 33 55 -3 6 -1 10 5 10 6 0 8 5 5 10 -3 6 1 10 10
10 9 0 14 4 10 9 -3 5 0 15 7 23 7 7 14 20 16 28 2 8 8 18 14 21 5 3 10 9 10
12 0 19 12 47 19 47 5 0 9 9 9 20 0 11 5 20 10 20 6 0 10 6 10 14 0 8 7 22 16
30 8 9 13 16 10 16 -9 0 34 77 50 90 7 7 12 16 9 20 -3 5 6 29 20 54 14 25 23
46 20 46 -4 0 3 14 15 30 12 17 19 38 16 46 -3 8 -2 13 3 10 7 -5 21 14 25 34
1 3 5 11 9 18 5 6 6 16 3 21 -3 5 1 11 9 15 9 3 12 12 8 22 -5 13 -3 15 7 9
10 -6 12 -4 7 8 -3 10 -3 17 1 17 5 0 14 17 22 37 7 21 20 54 28 73 9 19 15
38 14 43 -1 4 2 7 7 7 6 0 8 9 6 20 -2 12 2 23 10 27 8 3 12 9 9 14 -3 6 -1
15 4 22 6 7 12 21 14 32 1 11 6 22 10 25 4 3 9 17 11 30 2 14 10 39 17 55 7
17 14 35 15 40 4 30 30 105 36 105 3 0 4 12 1 26 -4 21 -2 25 8 19 10 -6 12
-4 7 8 -4 10 -1 17 6 17 7 0 8 3 2 8 -12 9 -16 44 -4 36 5 -3 10 2 10 10 2 25
4 30 12 44 5 7 3 12 -5 12 -10 0 -10 2 -1 8 7 4 15 24 17 43 3 18 6 35 7 37 1
1 2 10 3 20 1 9 4 22 7 27 3 6 4 20 3 33 0 12 2 22 6 22 3 0 6 15 5 33 0 17 4
35 10 40 6 4 5 11 -5 17 -12 7 -12 10 -1 10 8 0 11 6 7 16 -4 9 -1 23 5 30 9
11 9 18 0 28 -9 11 -9 15 1 19 10 4 10 8 -2 16 -8 6 -10 11 -4 11 14 0 16 239
2 257 -5 7 -5 14 2 18 5 3 10 11 10 16 0 6 -3 8 -7 6 -5 -3 -9 23 -11 56 -2
34 -9 68 -15 76 -9 12 -9 13 1 7 6 -4 12 -2 12 3 0 6 -4 11 -8 11 -5 0 -9 17
-10 37 -1 20 -5 39 -10 42 -5 3 -8 14 -6 24 1 9 -3 23 -10 30 -6 6 -11 22 -10
35 1 12 -6 27 -15 32 -10 6 -11 9 -3 10 10 0 10 4 0 23 -12 22 -14 28 -17 48
0 5 -6 7 -13 3 -6 -4 -8 -3 -5 3 3 5 0 22 -8 36 -8 15 -14 29 -15 30 0 1 -3
12 -6 25 -4 12 -10 22 -15 22 -5 0 -9 9 -9 20 0 11 -4 20 -10 20 -5 0 -10 7
-10 15 0 8 -3 15 -8 15 -4 0 -13 13 -20 28 -6 16 -21 38 -32 50 -11 12 -20 25
-20 30 0 5 -9 17 -20 27 -11 10 -20 24 -20 32 0 8 -4 11 -10 8 -5 -3 -10 1
-10 9 0 9 -4 16 -10 16 -5 0 -10 7 -10 16 0 8 -4 12 -10 9 -5 -3 -10 0 -10 7
0 7 -9 19 -21 26 -12 7 -18 16 -15 19 3 4 -6 15 -21 25 -16 10 -25 18 -20 18
4 0 -12 17 -35 38 -23 20 -46 36 -52 34 -6 -2 -8 -1 -4 3 8 8 -29 47 -61 64
-12 7 -18 17 -15 23 4 7 3 8 -4 4 -7 -4 -12 -2 -12 4 0 6 -4 8 -10 5 -5 -3
-10 -1 -10 4 0 6 -6 11 -14 11 -8 0 -17 7 -20 16 -4 9 -9 14 -12 11 -3 -3 -14
2 -24 11 -36 33 -46 38 -58 34 -6 -2 -12 3 -12 12 0 9 -7 16 -15 16 -20 0 -78
29 -87 44 -5 7 -8 6 -8 -3 0 -12 -3 -11 -12 2 -7 9 -25 18 -40 19 -15 1 -25 5
-22 9 5 9 -35 23 -43 15 -3 -3 -12 2 -20 10 -9 8 -20 13 -27 11 -6 -2 -17 3
-24 12 -8 9 -11 10 -7 4 3 -7 1 -13 -4 -13 -6 0 -11 5 -11 11 0 5 -4 7 -10 4
-5 -3 -10 -1 -10 4 0 6 -5 11 -11 11 -5 0 -7 -6 -3 -12 4 -7 -2 -5 -13 5 -11
9 -23 14 -26 11 -4 -4 -13 -1 -22 6 -9 7 -18 10 -22 7 -3 -4 -12 -2 -20 4 -7
6 -13 8 -13 4 0 -4 -6 -2 -14 4 -8 7 -20 11 -28 10 -27 -3 -49 1 -44 9 3 5 -1
9 -9 9 -8 0 -15 -4 -15 -9 0 -4 -5 -8 -11 -8 -5 0 -7 5 -4 10 4 6 -7 10 -24
10 -17 0 -31 3 -31 8 0 4 -17 7 -38 8 -20 0 -46 4 -56 9 -15 7 -17 5 -11 -6 5
-9 1 -7 -11 3 -16 14 -23 15 -32 6 -8 -8 -12 -9 -12 -1 0 6 -11 10 -25 8 -14
-1 -25 1 -25 4 0 4 -12 6 -27 5 -16 0 -31 4 -35 10 -5 8 -8 7 -8 -1 0 -9 -7
-10 -23 -4 -14 6 -30 5 -41 -1 -13 -7 -17 -7 -12 0 3 5 -5 12 -19 14 -15 3
-22 1 -18 -5 4 -7 -1 -8 -13 -3 -10 4 -29 9 -42 11 -19 2 -20 0 -10 -14 11
-14 10 -13 -7 1 -29 24 -30 24 -50 8 -11 -8 -16 -10 -12 -3 6 9 -40 12 -192
11 -141 -1 -198 -4 -194 -12 3 -6 0 -5 -7 1 -11 10 -17 10 -29 0 -12 -9 -13
-9 -7 1 4 6 2 12 -3 12 -6 0 -11 -5 -11 -10 0 -7 -7 -7 -21 1 -15 8 -19 8 -15
0 4 -6 0 -11 -9 -11 -9 0 -13 5 -10 10 3 6 4 10 1 10 -3 0 -8 -5 -11 -10z"/>
<path d="M9235 22461 c-3 -6 -13 -10 -23 -10 -36 -1 -127 -8 -127 -10 0 -2 -7
-4 -15 -6 -8 -2 -26 -7 -39 -11 -19 -6 -22 -4 -16 7 8 12 6 12 -8 1 -9 -8 -22
-10 -28 -6 -8 4 -9 3 -5 -4 5 -8 -2 -12 -21 -12 -15 -1 -39 -7 -52 -14 -14 -8
-31 -12 -38 -9 -7 3 -13 0 -13 -7 0 -6 -6 -10 -12 -7 -7 2 -24 -1 -38 -8 -14
-7 -35 -11 -47 -10 -12 1 -21 -3 -20 -8 1 -5 -9 -11 -22 -13 -14 -3 -30 -9
-38 -15 -7 -6 -13 -8 -13 -4 0 4 -7 2 -15 -5 -8 -6 -19 -9 -25 -5 -5 3 -10 1
-10 -5 0 -6 -4 -8 -10 -5 -5 3 -10 2 -10 -4 0 -6 -11 -13 -25 -17 -14 -3 -25
-11 -25 -18 0 -6 -4 -6 -9 3 -7 11 -11 10 -19 -5 -6 -11 -13 -18 -16 -17 -12
3 -46 -10 -46 -18 0 -5 -6 -9 -13 -9 -7 0 -23 -9 -34 -19 -12 -11 -24 -17 -27
-14 -3 4 -6 0 -6 -7 0 -7 -3 -11 -6 -7 -6 5 -28 -10 -66 -45 -10 -10 -20 -18
-23 -18 -7 0 -29 -18 -73 -60 -20 -19 -32 -28 -27 -20 5 8 -22 -16 -61 -55
-39 -38 -69 -73 -67 -77 2 -5 -1 -8 -7 -8 -11 0 -58 -50 -57 -60 0 -3 -16 -22
-36 -44 -20 -21 -34 -43 -30 -49 3 -6 1 -7 -5 -3 -7 4 -18 -7 -29 -28 -9 -19
-20 -33 -25 -30 -4 3 -8 -4 -8 -16 0 -11 -7 -23 -15 -26 -8 -4 -12 -10 -9 -15
3 -5 -2 -12 -10 -15 -9 -3 -13 -10 -10 -15 3 -5 0 -9 -5 -9 -6 0 -11 -6 -11
-14 0 -7 -7 -19 -15 -26 -8 -7 -12 -17 -8 -23 3 -5 0 -15 -8 -21 -16 -12 -99
-175 -99 -194 0 -7 -5 -12 -11 -12 -5 0 -8 -4 -5 -9 8 -13 -4 -42 -14 -36 -5
3 -7 -6 -4 -20 3 -17 -1 -27 -11 -31 -8 -3 -12 -10 -10 -15 3 -5 -1 -21 -9
-37 -8 -16 -12 -32 -9 -36 4 -3 1 -6 -5 -6 -6 0 -9 -9 -7 -20 2 -11 0 -20 -6
-20 -5 0 -8 -3 -7 -7 1 -9 -10 -59 -19 -83 -4 -8 -8 -28 -10 -45 -3 -16 -8
-32 -11 -35 -4 -3 -8 -9 -9 -15 0 -5 -4 -26 -8 -45 -4 -19 -8 -47 -8 -62 0
-15 -3 -25 -8 -22 -4 2 -7 -4 -7 -13 1 -22 -9 -70 -16 -82 -4 -5 -1 -13 4 -16
8 -5 5 -14 -7 -28 -12 -14 -13 -18 -3 -12 12 7 13 6 4 -6 -5 -8 -9 -29 -9 -46
1 -18 -3 -33 -7 -33 -5 0 -4 -9 2 -20 7 -12 7 -20 1 -20 -5 0 -8 -11 -5 -25 2
-14 0 -25 -6 -25 -6 0 -8 -5 -4 -12 8 -13 11 -78 4 -78 -3 0 -5 -27 -5 -60 1
-35 -3 -60 -9 -60 -6 0 -3 -5 7 -11 13 -8 15 -14 8 -23 -6 -7 -8 -25 -5 -40 3
-20 1 -25 -7 -20 -8 5 -9 3 -4 -7 12 -18 14 -49 3 -49 -4 0 -8 -5 -8 -11 0 -5
5 -7 10 -4 13 8 13 -1 0 -25 -7 -13 -7 -21 2 -26 7 -5 8 -3 3 6 -5 9 -4 11 4
6 6 -4 8 -13 4 -19 -12 -18 -11 -181 1 -189 8 -5 7 -8 -1 -8 -7 0 -10 -9 -7
-22 9 -42 9 -88 0 -88 -4 0 -3 -7 4 -15 7 -8 9 -15 6 -15 -4 0 -2 -9 4 -20 6
-11 7 -20 3 -19 -19 3 -27 -2 -15 -10 8 -4 14 -34 17 -75 2 -37 9 -74 17 -83
9 -12 9 -15 1 -9 -9 5 -11 -1 -8 -21 3 -15 7 -39 9 -53 3 -14 5 -27 6 -30 1
-3 3 -9 5 -15 1 -5 3 -14 4 -20 2 -5 3 -25 3 -42 0 -18 4 -33 9 -33 5 0 8 -10
8 -22 -1 -29 4 -49 15 -67 7 -11 6 -12 -5 -6 -12 7 -12 6 -1 -7 7 -9 14 -30
14 -47 1 -17 4 -31 7 -31 4 0 8 -17 9 -37 2 -21 7 -40 11 -43 5 -3 7 -13 5
-22 -1 -10 2 -18 7 -18 4 0 6 -7 3 -15 -4 -8 -2 -15 4 -15 5 0 8 -11 7 -25 -2
-14 1 -25 7 -25 6 0 8 -9 5 -20 -3 -11 0 -20 6 -20 6 0 8 -3 4 -6 -3 -3 1 -23
8 -44 7 -21 11 -41 8 -44 -4 -3 -1 -6 6 -6 7 0 9 -4 6 -10 -3 -5 -1 -10 6 -10
8 0 9 -4 0 -13 -8 -10 -6 -18 7 -33 10 -10 16 -27 14 -38 -2 -10 0 -16 6 -12
6 3 8 -2 5 -12 -2 -10 2 -24 11 -31 8 -7 12 -19 9 -27 -3 -8 2 -23 11 -33 9
-10 13 -21 9 -25 -4 -4 -1 -11 7 -16 11 -7 11 -10 2 -10 -8 0 -5 -8 8 -22 11
-12 18 -28 16 -35 -3 -7 1 -19 9 -27 8 -8 15 -24 15 -36 0 -12 4 -19 9 -15 6
3 8 -3 6 -14 -2 -11 3 -22 11 -25 9 -3 12 -10 9 -16 -3 -6 1 -13 10 -16 12 -5
13 -9 5 -14 -9 -6 -6 -14 9 -29 11 -11 18 -21 15 -21 -4 0 -1 -7 6 -15 7 -8 9
-15 4 -15 -5 0 -4 -4 2 -8 5 -4 18 -24 27 -44 10 -20 22 -40 27 -43 6 -4 8
-11 5 -16 -4 -5 -1 -9 4 -9 6 0 11 -7 11 -15 0 -8 3 -15 8 -15 4 0 13 -15 21
-32 8 -18 27 -49 43 -68 15 -19 28 -40 28 -47 0 -6 10 -19 22 -27 12 -9 19
-16 15 -16 -5 0 -2 -6 5 -14 7 -7 20 -23 28 -36 8 -12 27 -35 43 -53 15 -17
27 -35 27 -39 0 -5 5 -6 10 -3 6 3 10 0 10 -8 0 -8 7 -18 16 -21 8 -3 12 -10
9 -16 -3 -5 -3 -10 2 -10 14 0 73 -57 66 -64 -3 -3 1 -6 10 -6 9 0 17 -7 17
-17 0 -9 3 -13 6 -10 4 3 19 -7 34 -23 16 -17 35 -30 44 -30 9 0 15 -3 14 -7
-4 -13 48 -59 62 -55 7 3 10 0 6 -7 -4 -6 -1 -11 8 -11 9 0 16 -4 16 -10 0 -5
6 -10 13 -10 7 0 19 -9 27 -19 7 -11 17 -18 21 -16 4 3 12 -2 19 -10 7 -8 16
-12 21 -9 5 3 9 -2 9 -11 0 -9 5 -13 10 -10 6 3 10 1 10 -5 0 -6 5 -8 10 -5 6
3 10 1 10 -4 0 -6 6 -11 13 -11 7 0 23 -9 35 -20 12 -11 28 -20 37 -20 8 0 15
-4 15 -9 0 -5 7 -12 16 -15 10 -4 13 -2 9 7 -4 6 -1 5 7 -3 7 -8 20 -16 28
-18 8 -2 17 -7 20 -11 4 -6 21 -9 68 -13 6 -1 12 -4 12 -8 0 -4 23 -6 50 -6
28 1 56 -1 62 -5 6 -4 24 -3 39 1 18 5 29 5 29 -1 0 -6 5 -7 12 -3 6 4 37 8
67 8 31 1 61 4 68 9 6 4 23 8 37 9 14 1 26 6 26 10 0 4 7 8 15 8 8 0 15 5 15
11 0 5 4 8 9 4 5 -3 13 0 16 5 7 11 41 27 58 28 5 0 17 11 28 23 10 12 19 18
19 13 0 -5 7 0 16 11 8 11 17 18 19 15 3 -3 19 9 37 25 18 17 28 23 23 15 -4
-8 8 2 28 23 20 21 37 36 37 33 0 -3 25 20 55 50 30 31 55 60 55 66 0 5 5 6
10 3 6 -3 10 -2 10 4 0 5 18 28 40 50 23 23 38 41 34 41 -4 0 5 12 20 26 14
15 26 34 26 42 0 8 3 12 7 9 3 -4 22 17 42 46 19 28 40 57 45 64 30 34 34 41
29 47 -4 3 -1 6 5 6 7 0 12 7 12 15 0 7 7 18 15 23 9 4 17 18 18 29 0 12 4 20
7 18 3 -1 11 3 18 11 7 8 10 14 7 14 -4 0 3 14 15 30 12 17 18 30 13 30 -4 0
0 5 10 11 9 6 15 14 13 18 -3 4 3 17 14 28 10 12 16 24 13 27 -4 3 0 6 7 6 7
0 10 3 7 7 -4 3 1 12 11 20 9 8 11 11 4 8 -11 -6 -11 -3 0 14 7 12 16 21 21
21 4 0 6 4 2 9 -3 5 -1 12 5 16 6 4 8 11 5 16 -4 5 -3 9 2 9 10 0 53 80 58
106 1 11 8 18 15 16 6 -1 9 2 6 7 -9 14 5 42 17 34 5 -3 7 -2 4 4 -7 12 14 73
25 73 4 0 8 8 8 18 0 10 3 22 8 26 7 7 8 11 11 37 0 5 5 8 10 4 6 -3 8 4 6 15
-2 11 1 20 7 20 5 0 8 6 5 14 -3 8 3 23 14 35 11 11 19 23 19 26 -1 33 1 45 9
41 4 -3 8 2 8 12 0 35 3 43 14 36 8 -4 9 0 4 15 -4 13 -2 21 5 21 6 0 10 6 9
13 -1 6 3 25 9 40 7 16 9 33 6 39 -4 7 -2 8 4 4 7 -4 12 -4 13 1 2 23 10 53
21 79 6 16 12 37 13 46 1 10 7 23 12 30 6 7 9 21 8 31 -2 9 1 17 7 17 6 0 8 7
4 15 -3 8 -1 15 5 15 6 0 9 7 5 15 -3 8 2 19 12 24 11 7 12 11 4 11 -8 0 -10
5 -5 13 4 6 8 15 9 20 1 4 2 8 4 10 2 3 10 39 12 60 1 9 6 17 11 17 4 0 5 5 2
10 -3 6 -1 10 6 10 9 0 9 3 0 14 -9 11 -8 18 4 30 10 9 12 16 5 16 -7 0 -4 7
5 16 13 14 14 19 3 25 -11 7 -6 12 12 11 3 0 5 18 5 41 0 23 6 52 13 65 8 12
11 22 7 22 -4 0 -1 8 6 17 8 9 9 14 3 10 -6 -3 -11 0 -11 8 0 8 4 12 9 9 7 -5
13 26 9 49 -1 4 4 17 10 29 9 16 8 19 -3 12 -10 -6 -11 -5 -1 7 6 8 13 27 15
41 2 15 7 30 11 34 4 4 7 12 7 18 0 6 -5 4 -10 -4 -5 -8 -10 -10 -10 -4 0 6 3
14 7 18 7 7 11 24 15 64 1 12 7 22 13 22 5 0 3 5 -5 10 -13 9 -13 10 0 10 13
0 13 1 0 10 -9 6 -10 10 -3 10 6 0 12 8 11 18 0 9 3 35 7 57 4 22 8 61 9 87 0
27 5 48 9 48 5 0 5 5 1 11 -3 6 0 15 7 20 12 7 12 9 0 9 -11 0 -11 3 -1 15 9
11 9 15 1 15 -7 0 -9 5 -5 12 9 14 14 59 15 133 1 28 6 53 13 57 6 4 7 8 1 8
-6 0 -8 29 -5 76 3 41 1 82 -3 90 -4 8 -4 14 1 14 8 0 6 152 -3 178 -2 6 1 12
8 12 7 0 8 3 2 8 -5 4 -10 23 -10 42 0 19 -4 38 -10 42 -6 5 -5 8 3 8 9 0 10
6 4 18 -4 9 -8 33 -7 52 1 19 -3 41 -8 48 -6 8 -5 12 4 12 12 0 12 2 0 9 -7 5
-11 13 -7 19 3 6 2 13 -2 16 -5 3 -8 15 -7 28 1 13 -2 31 -6 40 -6 11 -5 18 4
21 9 4 9 6 0 6 -8 1 -13 14 -13 31 0 17 -5 30 -10 30 -12 0 -9 22 5 32 6 5 5
8 -2 8 -7 0 -13 8 -13 18 0 10 -6 24 -12 31 -11 11 -10 12 0 6 11 -6 11 -1 -1
21 -8 16 -12 35 -10 42 3 6 -1 12 -7 12 -7 0 -10 7 -7 15 4 8 2 17 -4 20 -5 4
-7 10 -4 15 3 5 1 11 -5 15 -5 3 -10 17 -10 31 0 13 -5 24 -10 24 -6 0 -9 3
-9 8 1 4 0 10 -1 15 -1 4 -3 10 -4 15 -1 4 -7 16 -13 27 -6 11 -9 28 -8 38 2
9 0 15 -5 12 -8 -5 -33 48 -33 71 0 7 -4 11 -8 9 -4 -3 -10 7 -13 20 -4 17
-11 23 -19 18 -7 -4 -6 0 2 11 12 14 12 17 1 14 -8 -2 -15 2 -15 7 -2 19 -28
65 -37 65 -4 0 -8 6 -8 13 0 7 -9 23 -20 35 -12 12 -17 22 -13 22 4 0 0 5 -9
11 -10 5 -18 16 -18 22 0 7 -18 32 -40 57 -21 24 -37 47 -34 52 3 4 -2 8 -10
8 -9 0 -16 4 -16 9 0 14 -156 171 -170 171 -6 0 -8 5 -5 10 3 6 0 10 -8 10 -8
0 -18 7 -21 16 -4 9 -9 14 -13 11 -3 -4 -16 3 -28 16 -26 26 -48 42 -95 62
-19 9 -41 22 -50 29 -8 7 -23 12 -32 11 -10 -2 -18 3 -18 11 0 7 -6 11 -14 8
-8 -3 -17 -1 -21 5 -3 6 -17 11 -30 11 -13 0 -27 5 -31 11 -3 6 -15 9 -25 6
-12 -3 -19 0 -19 9 0 8 -5 14 -11 14 -5 0 -7 -6 -3 -12 5 -9 2 -8 -9 1 -10 8
-20 11 -24 8 -3 -4 -14 -2 -25 4 -18 10 -88 19 -150 21 -15 0 -25 4 -22 9 3 5
1 9 -5 9 -5 0 -13 -5 -17 -11 -4 -8 -9 -7 -15 2 -7 12 -9 12 -9 0 0 -9 -4 -10
-12 -4 -7 5 -29 8 -48 6 -42 -4 -46 -4 -85 0 -16 1 -35 -1 -42 -6 -7 -5 -20
-4 -32 2 -12 7 -22 7 -26 2z"/>
<path d="M4645 20592 c-22 -2 -43 -9 -47 -15 -6 -9 -8 -9 -8 0 0 11 -30 11
-60 0 -14 -6 -59 -15 -102 -21 -9 -1 -24 -9 -34 -17 -16 -12 -17 -12 -9 1 8
13 7 13 -10 0 -10 -8 -20 -14 -22 -12 -9 6 -33 1 -29 -7 4 -5 -5 -8 -19 -7
-14 2 -30 -3 -36 -10 -6 -7 -16 -11 -23 -8 -8 3 -16 -3 -20 -13 -6 -15 -8 -15
-16 -3 -8 13 -10 12 -10 -2 0 -11 -5 -15 -14 -12 -7 3 -20 -1 -27 -8 -8 -7
-21 -14 -29 -16 -8 -2 -17 -7 -20 -10 -3 -4 -12 -8 -20 -10 -8 -2 -17 -8 -18
-13 -2 -5 -8 -7 -13 -3 -5 3 -9 0 -9 -5 0 -6 -5 -11 -11 -11 -6 0 -30 -14 -55
-30 -24 -17 -44 -28 -44 -24 0 5 -12 -7 -26 -24 -15 -18 -31 -32 -35 -32 -17
0 -88 -55 -89 -68 0 -7 -4 -11 -9 -7 -5 3 -17 -5 -25 -17 -9 -12 -16 -20 -16
-17 0 4 -19 -12 -43 -35 -24 -23 -42 -44 -40 -48 2 -5 -3 -8 -11 -8 -9 0 -16
-7 -16 -15 0 -8 -4 -15 -9 -15 -5 0 -18 -15 -30 -32 -11 -18 -21 -29 -21 -25
0 4 -6 2 -14 -5 -8 -7 -12 -16 -10 -20 3 -4 -4 -16 -16 -28 -11 -11 -20 -24
-20 -30 0 -5 -4 -10 -10 -10 -5 0 -10 -6 -10 -14 0 -7 -10 -24 -22 -38 -13
-13 -24 -33 -26 -44 -2 -10 -11 -25 -20 -31 -9 -7 -12 -13 -8 -13 5 0 1 -11
-8 -25 -9 -14 -14 -25 -10 -25 4 0 0 -7 -7 -16 -7 -9 -14 -25 -16 -35 -2 -11
-10 -30 -18 -43 -8 -12 -12 -25 -9 -29 3 -3 -1 -16 -9 -28 -9 -11 -13 -28 -10
-35 3 -8 1 -14 -5 -14 -5 0 -9 -13 -8 -30 1 -16 -3 -31 -10 -34 -6 -2 -11 -17
-12 -33 0 -53 -2 -64 -10 -59 -8 5 -12 -23 -12 -81 0 -17 -4 -34 -10 -38 -5
-3 -10 -11 -10 -16 0 -6 5 -7 11 -3 7 4 7 -1 -1 -16 -6 -12 -10 -31 -7 -41 3
-10 0 -19 -5 -19 -6 0 -5 -6 2 -15 10 -12 10 -15 0 -15 -7 0 -10 -7 -6 -16 4
-9 1 -23 -5 -30 -6 -8 -7 -14 -2 -14 5 0 10 -7 10 -15 0 -8 -3 -15 -6 -15 -11
0 -6 -265 4 -272 7 -5 6 -8 0 -8 -11 0 -13 -39 -2 -56 3 -5 2 -16 -3 -24 -5
-9 -5 -19 2 -27 6 -7 11 -47 11 -88 1 -41 5 -75 10 -75 5 0 7 -6 4 -14 -3 -7
0 -19 6 -26 9 -10 9 -11 0 -6 -7 4 -13 2 -13 -3 0 -6 4 -11 9 -11 5 0 7 -8 4
-19 -3 -10 0 -22 7 -26 8 -5 8 -10 -1 -21 -8 -10 -8 -14 0 -14 6 0 11 -17 11
-39 0 -22 5 -43 10 -46 8 -5 7 -12 -2 -23 -10 -12 -10 -14 0 -8 8 5 12 -2 12
-23 0 -18 5 -31 13 -31 8 0 7 -4 -3 -10 -8 -5 -10 -10 -5 -10 6 0 11 -10 12
-22 1 -12 7 -34 14 -50 6 -16 9 -32 5 -35 -3 -4 2 -15 11 -26 13 -15 14 -18 3
-12 -13 7 -13 6 -2 -7 7 -9 11 -22 10 -29 -2 -8 2 -13 8 -12 6 1 10 -11 9 -28
-1 -16 2 -29 6 -29 4 0 6 -11 5 -25 -2 -15 1 -22 7 -18 6 4 8 0 4 -11 -4 -10
-3 -15 3 -11 10 6 14 -15 11 -44 -2 -7 2 -10 7 -7 6 3 13 -1 16 -10 3 -8 2
-12 -3 -9 -5 3 -3 -8 5 -25 9 -16 13 -34 9 -40 -3 -5 1 -10 10 -10 9 0 14 -4
10 -10 -6 -9 -3 -15 29 -77 9 -18 14 -33 9 -33 -4 0 -2 -4 5 -9 7 -4 15 -14
17 -22 9 -41 18 -58 28 -52 6 3 7 1 3 -6 -4 -6 -2 -18 4 -26 6 -8 9 -19 5 -25
-3 -5 -2 -10 2 -10 14 0 65 -109 57 -121 -4 -8 -3 -9 4 -5 11 7 38 -38 34 -57
-1 -4 5 -10 13 -13 8 -3 12 -10 9 -15 -3 -5 -1 -9 4 -9 4 0 14 -16 22 -35 8
-19 17 -35 22 -35 4 0 7 -6 5 -12 -1 -7 4 -12 11 -10 8 1 11 -1 8 -6 -3 -5 6
-25 19 -45 14 -20 25 -41 25 -46 0 -6 5 -11 10 -11 6 0 10 -7 10 -15 0 -9 7
-18 15 -21 8 -4 15 -15 15 -25 0 -10 5 -19 11 -19 5 0 7 -4 4 -10 -3 -5 1 -10
9 -10 9 0 18 -11 22 -24 3 -14 12 -27 21 -30 8 -3 12 -10 9 -15 -3 -5 1 -12
10 -15 8 -3 12 -11 8 -17 -4 -7 -3 -10 2 -7 5 3 15 0 22 -8 7 -8 10 -14 7 -14
-6 0 -2 -5 45 -58 49 -56 65 -77 62 -84 -1 -5 6 -8 15 -8 9 0 14 -3 10 -6 -8
-8 25 -44 35 -38 4 3 8 1 8 -5 0 -6 11 -22 25 -36 14 -14 22 -25 18 -25 -4 0
7 -10 24 -21 18 -12 30 -25 27 -30 -3 -5 1 -9 9 -9 8 0 22 -11 33 -24 10 -14
21 -23 26 -20 4 3 8 -2 8 -10 0 -9 8 -16 17 -16 9 0 14 -3 10 -6 -3 -3 15 -22
41 -41 64 -50 71 -56 90 -75 9 -10 20 -18 25 -18 8 0 23 -11 60 -46 13 -11 28
-19 35 -16 7 2 12 -1 12 -7 0 -7 11 -16 25 -21 14 -5 25 -14 25 -20 0 -6 5 -8
10 -5 6 3 10 1 10 -5 0 -6 4 -8 10 -5 6 3 10 2 10 -3 0 -8 26 -20 46 -20 3 -1
13 -9 22 -20 9 -10 23 -17 30 -15 6 3 12 0 12 -6 0 -6 9 -11 20 -11 11 0 20
-4 20 -10 0 -5 11 -10 24 -10 13 0 26 -4 28 -10 2 -5 15 -11 31 -12 15 -1 27
-6 27 -10 0 -4 11 -8 25 -8 14 0 25 -5 25 -11 0 -8 6 -7 17 2 9 8 14 9 10 3
-4 -7 6 -12 26 -13 18 -2 40 -3 50 -4 9 -1 17 -5 17 -10 0 -5 6 -4 13 2 8 6
17 8 21 4 12 -12 36 -12 36 0 0 8 3 7 9 -1 4 -8 12 -14 16 -14 4 0 12 6 16 14
7 10 9 10 9 -2 0 -13 1 -13 10 0 9 13 10 13 10 0 0 -10 3 -11 8 -3 4 6 27 13
50 16 24 2 48 10 53 18 5 8 9 10 9 5 0 -5 8 -2 17 5 13 11 15 11 9 1 -7 -11
-4 -11 12 -1 12 7 19 17 16 21 -3 4 2 5 10 2 9 -3 16 -1 16 6 0 6 4 9 8 6 5
-3 19 4 30 15 12 11 22 17 22 13 0 -4 9 4 21 17 12 13 25 23 30 22 5 -2 9 4 9
14 0 9 3 14 6 10 7 -7 44 29 44 43 0 6 8 10 17 10 9 0 14 3 10 6 -3 3 2 15 11
26 9 11 27 32 39 46 13 15 23 33 23 40 0 6 5 12 10 12 6 0 10 7 10 15 0 8 4
15 8 15 5 0 14 16 22 35 8 19 18 35 22 35 5 0 6 5 3 10 -3 6 -2 10 2 10 9 0
39 69 35 83 -1 4 3 7 8 7 6 0 10 7 10 16 0 8 4 13 9 10 4 -3 7 6 5 19 -1 14 2
25 7 25 5 0 9 9 9 20 0 11 5 20 10 20 6 0 10 11 10 24 0 14 5 28 10 31 6 4 8
10 5 15 -3 5 0 12 6 15 5 4 8 13 5 20 -2 7 2 16 11 19 12 5 13 9 3 21 -10 12
-9 16 3 21 9 3 14 14 12 25 -2 10 0 19 6 19 5 0 8 3 8 8 -1 4 0 10 1 15 1 4 4
12 5 17 1 6 3 11 5 13 2 3 10 45 12 70 1 9 6 17 10 17 4 0 7 3 7 8 -5 20 15
92 25 92 7 0 6 4 -2 9 -11 6 -10 11 3 25 12 12 13 16 3 16 -8 0 -9 3 -3 8 6 4
11 21 10 39 0 17 3 29 8 26 4 -2 7 6 8 19 0 13 3 32 5 43 8 33 24 126 26 153
1 6 4 12 7 12 3 0 5 15 5 32 -1 18 4 39 10 47 8 11 8 13 -1 7 -16 -9 -17 6 -1
22 9 9 9 12 -1 12 -10 0 -11 3 -2 13 8 10 7 17 -2 27 -7 8 -7 10 -1 7 8 -5 12
14 12 61 2 166 4 208 15 221 8 10 9 13 1 8 -8 -5 -12 14 -12 63 0 50 3 68 11
64 7 -3 4 1 -6 9 -18 15 -18 16 0 26 10 6 13 11 7 11 -6 0 -11 11 -11 25 0 14
5 25 11 25 7 0 8 3 1 8 -16 10 -17 54 -2 45 9 -5 9 -3 1 8 -15 20 -15 59 -1
60 7 0 3 4 -8 9 -11 5 -15 9 -9 9 7 1 10 14 8 32 -3 22 0 28 9 23 6 -4 4 2 -6
13 -9 11 -14 22 -11 26 11 10 11 51 1 65 -6 8 -5 12 2 12 7 0 10 4 7 8 -2 4
-6 58 -8 120 -2 62 -7 112 -11 112 -5 0 -5 6 0 13 11 18 13 38 2 31 -5 -3 -9
2 -9 11 0 10 5 14 13 9 10 -6 10 -4 0 7 -7 7 -13 30 -13 50 0 21 -4 41 -10 44
-5 3 -10 12 -10 18 0 7 4 6 10 -3 6 -9 10 -10 10 -3 0 6 -4 14 -8 17 -5 3 -8
21 -7 41 0 19 -3 35 -7 35 -4 0 -4 7 -1 17 4 11 3 14 -5 9 -8 -4 -10 3 -7 23
2 16 -3 41 -10 55 -8 15 -9 24 -4 20 7 -4 7 1 0 15 -7 12 -9 26 -6 31 3 6 0
10 -7 10 -11 0 -10 2 0 9 11 6 10 10 -3 15 -14 5 -15 9 -5 21 7 9 8 15 2 15
-11 0 -22 32 -27 75 -1 17 -3 30 -5 30 -2 0 -8 31 -12 63 -1 6 -5 12 -10 12
-5 0 -7 4 -4 9 4 5 0 12 -6 14 -10 4 -10 6 0 6 11 1 10 4 -1 16 -9 8 -14 23
-13 32 2 10 -3 24 -11 32 -8 7 -12 20 -9 28 3 7 -1 16 -9 19 -8 4 -13 10 -10
14 6 10 -15 62 -30 72 -5 4 -6 8 -2 8 4 0 -4 21 -18 46 -14 25 -23 50 -20 55
4 5 -1 9 -9 9 -9 0 -15 3 -14 8 4 12 -24 72 -34 72 -5 0 -6 5 -3 10 3 6 1 10
-5 10 -6 0 -9 4 -5 9 3 5 -1 16 -9 24 -8 8 -12 17 -9 21 4 3 1 6 -5 6 -7 0
-12 7 -12 15 0 8 -5 15 -12 15 -6 0 -8 3 -5 7 4 3 -1 16 -11 27 -11 12 -28 37
-38 56 -23 41 -33 56 -56 77 -9 9 -15 20 -12 25 3 4 -2 8 -10 8 -9 0 -13 6
-10 14 3 8 -5 21 -18 30 -12 9 -19 16 -15 16 4 0 -7 13 -23 29 -17 15 -30 34
-30 40 0 7 -4 9 -10 6 -5 -3 -10 -1 -10 6 0 12 -154 169 -165 169 -3 0 -19 13
-36 29 -19 19 -37 27 -46 24 -11 -4 -14 -2 -9 5 4 7 -3 14 -19 18 -14 3 -25
10 -25 16 0 5 -4 6 -10 3 -5 -3 -10 -2 -10 4 0 6 -18 16 -40 22 -21 7 -38 15
-35 18 2 4 -4 8 -13 9 -55 6 -92 15 -92 23 0 5 -15 9 -34 9 -19 0 -38 5 -41
10 -4 7 -13 6 -27 -1 -11 -6 -18 -7 -15 -2 6 9 -23 12 -158 16 -27 1 -68 1
-90 -1z"/>
<path d="M1194 17692 c6 -9 1 -11 -18 -8 -14 3 -29 0 -32 -6 -4 -7 -9 -6 -14
2 -5 8 -13 9 -21 4 -20 -12 -49 -12 -49 0 0 7 -3 6 -8 -1 -4 -7 -24 -14 -44
-17 -20 -2 -44 -9 -55 -14 -10 -5 -28 -8 -40 -7 -12 1 -20 -2 -18 -6 5 -6 -32
-22 -47 -20 -5 1 -8 -4 -8 -10 0 -6 -7 -9 -15 -5 -8 3 -15 2 -15 -2 0 -8 -48
-37 -107 -66 -13 -6 -23 -14 -23 -18 0 -5 -7 -8 -16 -8 -8 0 -13 -4 -9 -9 3
-5 -5 -13 -17 -17 -13 -4 -31 -16 -40 -27 -10 -11 -18 -17 -18 -13 0 4 -11 -3
-24 -16 -39 -38 -66 -58 -77 -58 -6 0 -9 -6 -6 -13 3 -8 -7 -18 -24 -26 -16
-7 -28 -16 -26 -19 2 -10 -52 -62 -64 -62 -6 0 -8 -4 -4 -9 3 -5 -5 -17 -17
-25 -12 -9 -19 -16 -14 -16 4 0 -6 -13 -24 -30 -18 -16 -30 -30 -27 -30 4 0
-5 -12 -18 -26 -14 -15 -25 -33 -25 -40 0 -8 -6 -14 -14 -14 -8 0 -13 -8 -12
-17 0 -10 -5 -17 -11 -16 -7 2 -12 -1 -10 -5 3 -10 -35 -86 -45 -90 -5 -2 -8
-10 -8 -18 0 -8 -7 -26 -16 -39 -9 -13 -13 -29 -9 -35 3 -5 3 -10 -2 -10 -4 0
-13 -11 -20 -25 -6 -14 -7 -23 -2 -20 4 3 2 -6 -6 -21 -7 -15 -11 -32 -9 -39
3 -7 0 -16 -5 -20 -6 -3 -9 -11 -6 -16 4 -5 2 -9 -4 -9 -6 0 -7 -7 -4 -17 5
-12 3 -14 -8 -8 -11 6 -12 5 -2 -5 7 -8 9 -19 4 -29 -5 -9 -8 -28 -7 -43 1
-14 -3 -24 -8 -21 -5 4 -7 -1 -3 -10 3 -9 2 -19 -2 -22 -5 -3 -5 -21 -1 -40 4
-19 4 -38 -1 -41 -5 -3 -7 -29 -6 -59 2 -30 0 -52 -4 -49 -9 5 -6 -17 4 -33 5
-7 4 -13 0 -13 -10 0 -10 -47 0 -57 11 -10 8 -25 -3 -18 -12 7 -2 -23 14 -44
7 -10 7 -13 1 -9 -7 4 -11 -12 -10 -47 0 -29 3 -51 8 -48 4 2 7 -2 7 -11 0 -8
-6 -17 -12 -19 -9 -4 -8 -6 2 -6 11 -1 15 -12 14 -41 0 -22 4 -40 9 -40 5 0 3
-8 -4 -17 -10 -11 -10 -14 -1 -9 8 5 12 -2 13 -23 1 -17 2 -34 3 -38 14 -62
19 -90 17 -97 -1 -5 2 -12 8 -15 6 -4 11 -23 13 -44 1 -20 6 -37 10 -37 4 0 8
-12 8 -26 0 -17 4 -23 12 -18 10 6 10 4 1 -6 -10 -11 -8 -19 10 -39 12 -13 16
-21 10 -17 -18 10 -16 3 8 -48 11 -25 22 -53 24 -63 2 -10 4 -20 5 -23 1 -3 2
-8 1 -12 0 -5 4 -8 10 -8 5 0 7 -4 4 -10 -3 -5 -1 -10 4 -10 6 0 11 -9 11 -20
0 -11 5 -20 11 -20 5 0 8 -4 4 -9 -3 -6 4 -27 16 -47 11 -21 23 -47 25 -58 2
-12 8 -22 14 -24 5 -2 10 -12 10 -23 0 -10 4 -19 8 -19 5 0 14 -16 22 -35 7
-19 17 -32 22 -29 7 4 13 -26 9 -48 0 -5 3 -8 7 -8 9 0 72 -92 72 -104 0 -4 9
-16 20 -28 11 -12 20 -28 20 -35 0 -7 4 -13 8 -13 8 0 43 -54 39 -61 -1 -2 0
-3 2 -2 7 4 36 -41 33 -50 -1 -5 1 -6 6 -3 4 2 20 -15 36 -40 15 -24 33 -44
39 -44 5 0 8 -3 4 -6 -3 -3 8 -20 24 -36 16 -17 29 -38 29 -47 0 -14 2 -14 10
-1 8 13 10 13 10 -1 0 -9 13 -31 29 -48 16 -17 28 -31 27 -31 -2 0 21 -26 50
-57 30 -31 54 -60 54 -64 0 -4 9 -11 20 -14 11 -3 20 -12 21 -18 0 -7 25 -32
54 -57 29 -25 56 -53 60 -62 3 -10 11 -18 17 -18 5 0 23 -13 38 -30 15 -16 31
-30 35 -30 4 0 24 -18 45 -40 22 -23 43 -41 47 -41 4 -1 7 -5 6 -10 -2 -5 3
-9 10 -9 7 0 23 -9 35 -20 12 -11 25 -20 31 -20 5 0 12 -7 15 -16 3 -8 10 -12
16 -9 5 3 10 -1 10 -9 0 -9 7 -16 15 -16 8 0 23 -10 35 -22 11 -12 20 -18 20
-13 0 5 6 0 14 -11 8 -10 18 -19 23 -19 4 0 28 -15 52 -33 24 -17 47 -29 52
-26 5 3 9 0 9 -6 0 -6 12 -16 28 -23 15 -6 33 -19 40 -27 12 -13 13 -13 6 0
-6 11 -2 10 13 -3 11 -9 23 -14 26 -10 4 3 7 1 7 -5 0 -7 7 -12 15 -12 8 0 15
-4 15 -10 0 -5 7 -10 15 -10 8 0 30 -9 50 -20 20 -11 42 -20 50 -20 8 0 15 -4
15 -8 0 -5 23 -15 51 -22 27 -8 52 -17 55 -22 3 -4 11 -5 19 -1 8 3 15 0 15
-7 0 -6 5 -8 11 -4 6 3 15 0 20 -7 7 -12 9 -11 9 1 0 13 2 13 9 1 5 -8 27 -14
49 -15 22 -1 38 -4 36 -7 -2 -3 20 -7 48 -8 28 -1 54 -4 59 -6 4 -3 10 -1 14
4 3 6 12 8 19 5 8 -3 17 0 21 5 3 6 11 9 16 5 16 -10 90 7 82 18 -3 7 -1 8 5
4 7 -4 18 -4 25 1 6 4 17 8 22 8 22 3 75 28 75 36 0 5 3 8 8 8 19 -3 33 2 27
11 -3 6 -1 10 5 10 7 0 25 11 42 25 16 14 26 25 23 25 -4 0 7 12 24 27 17 15
31 33 31 41 0 7 7 15 15 18 8 4 12 10 9 15 -3 5 0 9 6 9 6 0 8 5 5 10 -3 6 -1
10 5 10 7 0 10 6 7 14 -3 8 1 17 9 20 9 3 13 10 9 15 -3 5 0 13 6 16 5 4 8 14
5 22 -3 8 -1 11 4 8 5 -3 12 7 16 22 4 15 9 33 13 38 3 6 7 16 8 23 2 6 5 18
7 25 2 6 7 27 11 45 4 17 11 32 15 32 4 0 6 14 5 30 -1 17 1 30 5 30 4 0 6 10
6 23 -1 12 0 27 3 32 3 6 6 15 7 20 1 6 5 26 8 45 4 19 8 53 10 75 1 23 5 45
8 50 3 6 4 21 3 35 -1 14 1 35 6 48 6 15 5 22 -4 22 -8 0 -8 3 2 9 11 7 11 9
0 13 -11 4 -11 8 -3 19 6 8 10 22 9 31 -2 10 1 20 6 24 5 3 6 10 3 16 -11 17
-10 108 1 112 6 3 4 5 -3 5 -8 1 -10 6 -6 13 11 18 4 100 -9 117 -9 11 -9 13
0 8 6 -4 14 -3 18 3 3 5 -2 10 -12 10 -15 0 -15 2 -4 9 13 8 13 12 0 27 -12
15 -12 17 0 9 11 -6 13 -4 8 8 -4 10 -1 17 5 17 7 0 4 6 -7 13 -11 9 -14 16
-7 21 6 4 8 17 3 34 -4 15 -7 43 -6 62 1 19 -3 41 -8 48 -5 7 -6 12 0 12 5 0
9 9 9 19 0 11 -4 18 -7 15 -4 -2 -10 0 -14 6 -3 5 -1 10 6 10 7 0 8 5 3 13 -5
6 -9 36 -9 64 0 29 -4 53 -9 53 -5 0 -2 8 5 17 10 11 10 14 2 9 -8 -4 -13 -2
-14 6 -3 66 -14 132 -24 148 -3 5 -1 10 6 10 9 0 8 4 -1 15 -6 8 -13 32 -13
54 -1 21 -5 37 -9 34 -5 -2 -9 6 -9 19 -1 13 -2 35 -3 50 -1 15 -6 31 -10 35
-5 5 -6 2 -1 -6 5 -9 4 -12 -3 -8 -5 4 -8 16 -5 27 3 11 3 27 -1 35 -3 8 -5
18 -5 21 0 4 -5 11 -13 15 -11 7 -11 9 1 9 10 0 11 3 2 13 -6 8 -8 17 -4 20 3
4 1 7 -5 7 -6 0 -9 9 -7 20 2 11 -1 22 -6 25 -5 4 -7 11 -4 16 4 5 1 9 -5 9
-6 0 -9 4 -6 9 4 5 1 22 -5 38 -13 31 -18 49 -21 76 -1 9 -7 17 -12 17 -5 0
-6 3 -3 7 4 3 1 13 -6 21 -10 13 -9 14 3 7 9 -5 7 1 -5 15 -11 13 -14 20 -7
16 6 -4 3 9 -9 28 -12 20 -18 36 -13 36 4 0 -1 10 -12 22 -10 12 -13 18 -6 14
17 -10 15 2 -3 21 -8 8 -13 19 -10 24 4 5 1 9 -5 9 -6 0 -8 5 -5 10 3 6 2 10
-4 10 -5 0 -8 8 -7 17 2 10 -3 24 -11 31 -7 8 -11 18 -8 23 4 5 1 9 -4 9 -6 0
-11 9 -11 20 0 11 -5 20 -11 20 -5 0 -7 5 -4 10 3 6 1 10 -5 10 -7 0 -10 7 -6
15 3 8 2 15 -2 15 -5 0 -14 16 -21 35 -7 19 -17 35 -22 35 -6 0 -8 4 -4 9 3 5
1 12 -5 16 -6 4 -8 11 -5 16 4 5 1 9 -4 9 -6 0 -11 7 -11 15 0 8 -5 15 -11 15
-5 0 -8 4 -4 9 3 5 -1 16 -10 24 -8 8 -16 21 -17 28 -2 8 -9 20 -16 27 -7 8
-10 18 -7 23 4 5 -1 9 -10 9 -9 0 -14 3 -11 8 2 4 -9 27 -25 50 -16 24 -24 40
-17 36 7 -4 2 4 -12 18 -14 14 -41 51 -60 83 -19 33 -44 67 -54 77 -11 10 -17
18 -13 18 4 0 -9 17 -28 37 -19 20 -33 38 -31 41 4 3 -9 18 -109 126 -25 27
-45 52 -45 56 0 3 -11 13 -25 20 -13 7 -23 16 -21 19 2 3 -2 12 -10 19 -8 7
-14 10 -14 6 0 -4 -11 4 -23 18 -13 14 -34 31 -46 37 -12 7 -18 17 -15 23 4 7
3 8 -5 4 -6 -4 -14 0 -17 8 -3 9 -12 16 -20 16 -7 0 -17 6 -21 14 -4 8 -12 16
-18 17 -43 10 -47 12 -33 20 9 6 4 9 -14 9 -16 0 -28 3 -28 8 0 7 -86 46 -92
41 -2 -1 -23 8 -47 20 -23 12 -40 18 -36 12 3 -6 1 -11 -4 -11 -6 0 -11 5 -11
11 0 5 -4 8 -9 4 -5 -3 -12 -1 -16 5 -4 7 -12 7 -24 0 -10 -5 -21 -7 -24 -3
-11 10 -51 10 -66 -1 -11 -8 -13 -8 -7 2 5 8 -1 12 -19 12 -18 0 -24 -4 -19
-12 4 -7 -2 -5 -13 5 -14 13 -23 15 -28 7 -5 -8 -11 -7 -23 2 -13 10 -14 10
-8 0z"/>
<path d="M10450 15464 c0 -11 -3 -15 -8 -9 -10 15 -55 16 -64 2 -5 -8 -8 -8
-8 -1 0 9 -52 12 -70 4 -3 -1 -9 -1 -15 0 -30 7 -65 5 -65 -3 0 -5 -7 -4 -15
3 -8 7 -15 8 -15 3 0 -5 -9 -9 -20 -10 -11 -1 -18 2 -15 7 3 6 -1 7 -9 4 -9
-3 -13 -10 -10 -15 7 -13 -19 -7 -28 6 -5 6 -8 5 -8 -2 0 -7 -5 -13 -11 -13
-5 0 -7 5 -3 12 5 7 3 8 -7 2 -8 -5 -36 -9 -64 -11 -27 -1 -61 -4 -74 -7 -14
-3 -31 0 -40 7 -12 9 -13 9 -7 0 4 -7 4 -13 -1 -14 -4 0 -26 -2 -49 -3 -22 -1
-46 -6 -54 -11 -9 -5 -11 -4 -6 3 5 9 0 9 -19 2 -15 -6 -42 -10 -61 -10 -19 0
-34 -4 -34 -10 0 -5 -5 -10 -11 -10 -5 0 -7 6 -3 13 5 8 2 8 -9 -2 -12 -10
-17 -10 -17 -2 0 8 -6 7 -16 -4 -12 -12 -19 -13 -30 -4 -8 6 -14 7 -14 2 0 -5
-20 -8 -44 -8 -25 1 -43 -2 -41 -5 4 -6 -16 -9 -85 -12 -8 -1 -18 -6 -22 -12
-5 -7 -8 -6 -8 3 0 11 -3 11 -17 0 -14 -12 -16 -12 -8 0 6 11 5 12 -6 5 -16
-10 -29 -12 -86 -16 -24 -2 -43 -6 -43 -10 0 -4 -10 -7 -22 -6 -55 2 -99 -3
-94 -10 3 -5 -1 -9 -9 -9 -8 0 -12 5 -8 10 3 5 -2 5 -13 -1 -11 -5 -36 -8 -56
-8 -21 1 -38 -3 -38 -8 0 -5 -3 -6 -7 -3 -3 4 -12 2 -20 -4 -10 -9 -13 -8 -13
0 0 7 -5 9 -12 5 -14 -9 -37 -13 -85 -17 -18 -1 -33 -6 -33 -11 0 -4 -6 -3
-14 3 -11 10 -17 8 -25 -6 -8 -14 -10 -15 -11 -3 0 13 -2 13 -9 1 -5 -8 -16
-11 -25 -8 -9 4 -16 3 -16 -2 0 -4 -6 -8 -12 -8 -22 -1 -92 -14 -113 -20 -11
-4 -27 -7 -35 -8 -8 -2 -24 -6 -34 -10 -15 -7 -17 -5 -11 6 5 8 1 7 -12 -4
-11 -9 -23 -14 -26 -11 -4 4 -14 1 -24 -7 -15 -12 -16 -12 -8 1 7 12 6 13 -6
5 -8 -6 -27 -12 -44 -14 -16 -2 -33 -8 -37 -15 -5 -7 -8 -6 -8 4 0 9 -3 11 -8
5 -4 -5 -18 -11 -32 -13 -53 -6 -71 -13 -64 -25 5 -9 4 -9 -5 -1 -12 11 -71 7
-71 -6 0 -4 -13 -6 -30 -5 -16 1 -30 -2 -30 -6 0 -4 -9 -6 -20 -4 -11 2 -20 0
-20 -6 0 -5 -10 -8 -23 -5 -13 2 -38 -3 -57 -11 -19 -9 -46 -15 -59 -14 -13 2
-21 -1 -18 -7 4 -5 -7 -8 -23 -7 -17 1 -30 -3 -30 -8 0 -5 -9 -7 -21 -4 -12 3
-22 0 -26 -9 -3 -8 -9 -11 -14 -8 -6 3 -17 0 -26 -8 -14 -11 -16 -11 -8 2 8
13 7 13 -8 1 -9 -7 -17 -10 -17 -6 0 4 -6 3 -12 -2 -7 -6 -25 -10 -41 -9 -19
1 -26 -2 -22 -12 3 -9 -1 -12 -15 -7 -10 3 -28 1 -39 -5 -11 -5 -31 -11 -45
-12 -15 -1 -26 -5 -26 -9 0 -3 -6 -6 -12 -7 -7 0 -22 -3 -33 -6 -11 -2 -26 -5
-33 -5 -7 -1 -11 -4 -9 -8 3 -5 -5 -9 -16 -9 -12 -1 -31 -4 -42 -7 -11 -3 -26
-6 -33 -6 -7 -1 -10 -5 -7 -11 3 -5 0 -7 -9 -4 -8 3 -29 -2 -46 -11 -18 -9
-29 -12 -26 -6 4 7 1 8 -8 5 -9 -3 -16 -10 -16 -14 0 -4 -13 -7 -29 -6 -17 1
-28 -2 -25 -6 3 -4 -2 -8 -10 -8 -9 0 -16 -5 -16 -11 0 -5 -4 -8 -10 -4 -12 8
-61 -5 -55 -15 2 -4 -7 -5 -22 -2 -17 3 -24 1 -19 -6 4 -6 -1 -11 -11 -11 -17
0 -55 -7 -60 -11 -2 -2 -6 -3 -10 -4 -5 -1 -13 -5 -20 -9 -6 -4 -23 -8 -36 -9
-14 -1 -23 -6 -21 -10 5 -7 -36 -13 -59 -9 -5 1 -6 -3 -2 -9 4 -6 -4 -10 -19
-10 -14 0 -27 -4 -30 -9 -4 -5 -17 -8 -31 -7 -13 2 -22 0 -20 -4 4 -7 -6 -11
-57 -25 -5 -2 -11 -4 -15 -5 -5 -1 -11 -2 -15 -1 -5 0 -8 -3 -8 -7 0 -5 -7 -9
-15 -10 -8 -1 -22 -3 -30 -4 -8 -1 -15 -5 -15 -9 0 -7 -68 -24 -83 -20 -5 1
-6 -3 -2 -9 5 -9 -15 -15 -37 -11 -5 0 -8 -4 -8 -10 0 -5 -4 -7 -10 -4 -5 3
-10 2 -10 -4 0 -6 -7 -8 -15 -5 -8 3 -17 0 -20 -9 -4 -8 -16 -13 -30 -12 -13
2 -26 -3 -29 -12 -3 -8 -11 -11 -17 -8 -5 4 -19 -1 -30 -11 -15 -13 -19 -14
-19 -3 -1 10 -4 9 -11 -3 -5 -10 -17 -18 -26 -18 -8 0 -37 -11 -64 -25 -27
-13 -49 -22 -49 -19 0 2 -10 -1 -22 -8 -13 -7 -27 -11 -31 -10 -4 1 -10 -4
-13 -12 -3 -8 -11 -13 -19 -10 -7 3 -19 -1 -26 -8 -8 -7 -21 -13 -29 -13 -8 0
-18 -4 -22 -10 -4 -5 -11 -10 -15 -10 -19 -2 -60 -19 -85 -36 -14 -11 -33 -19
-42 -19 -9 0 -16 -4 -16 -9 0 -6 -9 -8 -19 -6 -11 2 -22 -3 -25 -11 -3 -9 -10
-13 -15 -9 -5 3 -12 1 -16 -4 -8 -15 -67 -42 -58 -28 3 7 -3 4 -14 -6 -11 -9
-23 -14 -26 -10 -4 3 -7 1 -7 -6 0 -8 -6 -11 -16 -7 -8 3 -12 2 -9 -4 6 -9 -8
-14 -27 -11 -5 0 -8 -4 -8 -10 0 -6 -7 -8 -16 -5 -12 5 -15 2 -10 -10 4 -12 1
-14 -14 -9 -13 4 -22 1 -26 -9 -3 -8 -11 -13 -19 -10 -7 3 -15 -2 -19 -11 -3
-9 -10 -13 -16 -10 -6 3 -24 -3 -40 -15 -17 -12 -30 -18 -30 -13 0 4 -4 3 -8
-2 -12 -17 -65 -49 -56 -34 10 18 -27 -10 -39 -29 -5 -7 -13 -10 -18 -6 -6 3
-18 0 -27 -8 -9 -8 -32 -20 -49 -28 -18 -7 -31 -15 -29 -19 3 -4 -5 -8 -16 -8
-12 -1 -24 -6 -27 -11 -3 -5 -16 -12 -29 -16 -12 -4 -19 -12 -16 -18 4 -6 2
-8 -4 -4 -6 3 -13 2 -17 -4 -4 -6 -11 -8 -16 -5 -5 4 -9 1 -9 -4 0 -6 -5 -11
-12 -11 -6 0 -27 -12 -46 -27 -20 -15 -32 -20 -27 -13 5 7 -7 2 -27 -13 -19
-15 -38 -27 -42 -27 -8 0 -69 -42 -77 -53 -3 -5 -10 -9 -15 -9 -21 -2 -64 -25
-57 -31 5 -6 -3 -9 -23 -6 -3 0 -13 -8 -22 -19 -9 -10 -23 -17 -31 -14 -8 2
-11 0 -7 -6 3 -5 -6 -13 -19 -16 -14 -4 -23 -11 -20 -16 3 -5 0 -7 -8 -4 -8 3
-17 -2 -21 -11 -3 -9 -10 -13 -16 -10 -5 3 -10 1 -10 -4 0 -6 -6 -11 -14 -11
-8 0 -17 -7 -20 -16 -3 -8 -10 -13 -15 -10 -5 3 -12 -1 -15 -10 -3 -8 -10 -12
-16 -9 -5 3 -10 1 -10 -4 0 -6 -5 -11 -10 -11 -10 0 -22 -8 -55 -37 -7 -7 -18
-13 -24 -13 -5 0 -14 -8 -20 -17 -5 -10 -13 -17 -18 -17 -16 3 -33 -8 -27 -17
3 -5 2 -9 -3 -8 -21 4 -33 -2 -33 -17 0 -8 -5 -12 -11 -8 -6 3 -22 -6 -35 -21
-13 -16 -24 -24 -24 -20 0 5 -11 -2 -25 -15 -14 -13 -25 -20 -25 -16 0 4 -10
-4 -22 -17 -13 -13 -31 -26 -40 -30 -10 -3 -18 -11 -18 -17 0 -6 -5 -8 -10 -5
-6 3 -13 -1 -16 -9 -3 -9 -12 -16 -19 -16 -8 0 -23 -12 -34 -26 -12 -15 -21
-24 -21 -20 0 9 -23 -10 -61 -49 -16 -16 -29 -25 -29 -20 0 6 -5 2 -11 -8 -6
-9 -14 -15 -20 -12 -8 6 -13 -8 -10 -27 0 -4 -6 -5 -14 -2 -8 4 -15 1 -15 -5
0 -6 -7 -11 -15 -11 -8 0 -14 -3 -13 -7 2 -5 0 -9 -5 -10 -15 -5 -35 -28 -30
-35 2 -5 -2 -8 -10 -8 -8 0 -18 -7 -21 -16 -3 -8 -10 -12 -16 -9 -5 3 -10 1
-10 -5 0 -6 -7 -18 -15 -26 -8 -9 -15 -13 -15 -10 0 3 -12 -7 -27 -21 -16 -14
-27 -30 -25 -35 1 -5 -2 -7 -8 -3 -5 3 -10 2 -10 -4 0 -5 -9 -13 -20 -16 -11
-3 -20 -14 -20 -22 0 -9 -2 -14 -5 -11 -3 3 -41 -30 -84 -73 -44 -43 -82 -75
-85 -72 -3 4 -6 1 -6 -6 0 -16 -45 -61 -61 -61 -7 0 -10 -2 -7 -6 7 -6 -78
-94 -92 -94 -5 0 -10 -4 -10 -9 0 -5 -38 -48 -85 -95 -47 -47 -85 -91 -85 -97
0 -5 -3 -8 -8 -6 -7 5 -38 -23 -36 -33 1 -3 -2 -4 -7 -2 -5 1 -12 -5 -16 -15
-4 -9 -23 -32 -42 -52 -50 -50 -135 -150 -140 -164 -2 -7 -15 -22 -29 -34 -14
-13 -23 -23 -19 -23 3 0 -7 -14 -23 -31 -49 -55 -60 -69 -60 -79 0 -5 -4 -10
-10 -10 -5 0 -10 -7 -10 -15 0 -8 -4 -15 -10 -15 -5 0 -10 -6 -10 -13 0 -8
-11 -24 -25 -37 -14 -13 -23 -25 -21 -27 2 -2 -7 -16 -20 -30 -13 -14 -24 -32
-24 -40 0 -8 -4 -12 -9 -9 -5 3 -14 -8 -21 -24 -7 -17 -17 -30 -22 -30 -5 0
-6 -4 -3 -10 3 -5 1 -10 -4 -10 -6 0 -11 -7 -11 -15 0 -8 -4 -15 -10 -15 -5 0
-10 -7 -10 -15 0 -8 -5 -15 -11 -15 -5 0 -7 -4 -4 -10 3 -5 -1 -10 -9 -10 -9
0 -15 -3 -15 -7 3 -20 -2 -34 -11 -28 -6 3 -7 -1 -4 -9 3 -9 1 -16 -5 -16 -6
0 -11 -7 -11 -15 0 -9 -7 -18 -15 -21 -8 -4 -13 -10 -10 -14 3 -4 -4 -19 -15
-33 -11 -14 -20 -30 -20 -37 0 -6 -6 -8 -12 -4 -7 4 -10 4 -6 -1 4 -4 2 -17
-4 -29 -7 -11 -11 -24 -10 -28 1 -5 -3 -8 -9 -8 -5 0 -15 -13 -20 -30 -6 -16
-15 -30 -21 -30 -5 0 -7 -4 -3 -9 3 -5 -2 -17 -11 -25 -8 -9 -12 -16 -7 -16 4
0 -1 -7 -11 -15 -14 -11 -16 -15 -5 -15 11 -1 10 -3 -2 -10 -9 -5 -20 -21 -23
-35 -4 -14 -11 -25 -16 -25 -5 0 -7 -7 -4 -15 4 -8 -1 -17 -10 -21 -9 -3 -14
-10 -11 -14 3 -5 1 -11 -5 -15 -6 -4 -8 -10 -5 -15 3 -5 -3 -13 -12 -19 -13
-8 -14 -10 -4 -11 11 0 9 -4 -5 -15 -10 -8 -16 -15 -11 -15 4 0 -4 -21 -17
-47 -14 -27 -26 -55 -28 -63 -2 -8 -9 -21 -16 -28 -7 -8 -10 -18 -7 -23 4 -5
1 -9 -5 -9 -6 0 -9 -4 -5 -9 3 -5 1 -12 -5 -16 -6 -4 -8 -11 -5 -16 4 -5 1 -9
-5 -9 -6 0 -8 -4 -5 -10 3 -5 1 -10 -5 -10 -6 0 -9 -4 -6 -8 3 -5 -2 -20 -12
-33 -9 -13 -15 -34 -14 -46 2 -13 -1 -23 -7 -23 -6 0 -11 -8 -11 -18 0 -10 -3
-22 -8 -26 -4 -4 -7 -11 -8 -14 -4 -30 -30 -102 -37 -102 -4 0 -6 -4 -2 -9 3
-5 1 -12 -4 -15 -5 -4 -8 -17 -6 -31 1 -14 -4 -30 -11 -36 -8 -6 -11 -15 -8
-20 3 -5 1 -9 -3 -9 -8 0 -12 -17 -14 -62 0 -10 -5 -18 -10 -18 -6 0 -7 -4 -4
-10 3 -5 2 -10 -4 -10 -5 0 -8 -8 -7 -17 2 -10 -3 -33 -11 -50 -7 -18 -13 -36
-12 -40 3 -18 -2 -34 -8 -30 -5 3 -8 -13 -9 -35 -1 -22 -7 -44 -15 -49 -12 -7
-12 -9 0 -9 10 0 11 -3 2 -13 -6 -8 -12 -27 -14 -43 -2 -17 -7 -35 -11 -42 -4
-7 -4 -12 0 -12 3 0 0 -8 -7 -17 -12 -14 -12 -15 -1 -9 12 7 12 4 2 -14 -6
-12 -9 -24 -6 -27 3 -3 -2 -12 -12 -20 -9 -8 -11 -12 -5 -8 15 7 18 -11 4 -19
-5 -3 -7 -15 -4 -26 3 -13 0 -20 -8 -20 -11 0 -11 -2 1 -10 9 -6 11 -10 3 -10
-7 0 -10 -7 -7 -15 4 -8 2 -15 -3 -15 -5 0 -8 -16 -8 -35 1 -19 -3 -35 -8 -35
-5 0 -7 -6 -4 -14 3 -8 1 -17 -6 -20 -9 -3 -8 -5 1 -5 7 -1 10 -6 7 -12 -6 -9
-9 -21 -18 -84 -1 -11 -6 -26 -10 -32 -5 -8 -3 -13 3 -13 7 0 8 -6 2 -17 -10
-22 -10 -33 2 -52 7 -10 6 -12 -4 -6 -10 6 -12 3 -8 -13 4 -13 1 -22 -5 -22
-7 0 -5 -5 3 -10 10 -6 11 -10 3 -10 -7 0 -13 -5 -13 -11 0 -5 5 -7 12 -3 6 4
9 3 6 -2 -4 -5 -9 -26 -12 -47 -4 -28 -3 -36 6 -31 8 5 8 3 2 -7 -10 -16 -13
-889 -2 -883 4 2 9 0 13 -6 3 -5 -2 -10 -12 -10 -14 0 -15 -2 -4 -9 8 -5 12
-18 8 -30 -3 -12 -1 -24 4 -27 5 -3 5 -13 -1 -25 -7 -12 -7 -19 -1 -19 5 0 8
-9 6 -20 -2 -11 2 -20 8 -20 8 0 8 -3 2 -8 -13 -9 -19 -35 -6 -28 5 3 9 -9 10
-27 0 -17 3 -45 6 -62 3 -16 7 -50 9 -75 2 -25 11 -64 19 -87 10 -29 11 -45 4
-52 -8 -8 -7 -11 1 -11 7 0 12 -13 12 -31 0 -17 5 -40 11 -51 9 -16 8 -19 -3
-12 -8 5 -6 -2 5 -19 12 -19 14 -27 5 -27 -8 0 -9 -3 -3 -8 6 -4 10 -19 10
-34 -1 -15 3 -24 7 -22 4 3 8 -13 8 -35 0 -26 5 -41 13 -41 8 0 7 -4 -3 -10
-8 -5 -10 -10 -5 -10 6 0 12 -12 13 -26 1 -15 8 -34 15 -42 9 -13 9 -14 -1 -8
-6 4 -12 2 -12 -3 0 -6 4 -11 8 -11 4 0 9 -14 10 -32 2 -17 8 -38 14 -45 8
-10 7 -13 -3 -13 -9 0 -10 -3 -4 -8 10 -7 17 -27 18 -49 0 -7 4 -13 8 -13 4 0
7 -10 7 -22 0 -20 6 -51 12 -68 3 -8 7 -24 8 -38 1 -7 5 -11 9 -9 5 3 9 -5 9
-16 4 -65 10 -97 19 -93 6 2 11 -6 12 -18 8 -74 16 -105 26 -99 6 4 8 0 4 -10
-3 -10 -2 -17 3 -17 5 0 7 -7 4 -15 -4 -8 -1 -15 5 -15 6 0 11 -5 11 -11 0 -5
-6 -7 -12 -3 -8 5 -7 0 2 -10 8 -10 15 -26 15 -35 0 -9 5 -15 11 -14 7 1 9 -8
6 -22 -3 -16 0 -25 8 -25 7 0 10 -8 7 -20 -3 -11 -1 -20 5 -20 5 0 6 -4 3 -10
-3 -5 -1 -10 6 -10 7 0 9 -3 6 -7 -4 -3 1 -15 10 -26 10 -11 12 -17 5 -13 -15
9 -16 -10 -1 -19 6 -4 8 -13 5 -20 -2 -7 2 -16 10 -19 9 -3 13 -10 9 -15 -3
-5 -1 -12 5 -16 6 -4 8 -11 5 -16 -4 -5 -1 -9 5 -9 6 0 9 -4 6 -8 -3 -5 6 -30
19 -57 25 -49 33 -73 15 -45 -5 8 -10 10 -10 4 0 -6 7 -17 15 -24 8 -7 12 -16
9 -21 -3 -5 0 -9 5 -9 6 0 11 -9 11 -20 0 -11 5 -20 11 -20 5 0 8 -3 6 -7 -3
-5 0 -19 6 -33 5 -14 11 -32 13 -40 2 -8 8 -16 13 -18 6 -2 11 -15 11 -28 0
-13 5 -24 11 -24 5 0 8 -4 4 -9 -3 -5 -1 -12 5 -16 6 -4 8 -11 5 -16 -4 -5 -1
-9 5 -9 7 0 10 -7 6 -15 -3 -8 -1 -15 5 -15 6 0 8 -4 5 -9 -4 -5 -1 -11 4 -13
6 -2 12 -10 14 -18 4 -19 16 -49 57 -135 18 -38 34 -77 35 -85 2 -8 8 -16 13
-18 6 -2 11 -12 11 -22 0 -10 5 -22 10 -25 6 -4 8 -11 5 -16 -4 -5 -2 -9 3 -9
9 0 25 -37 23 -52 -1 -5 3 -8 8 -8 8 0 24 -37 22 -52 -1 -5 4 -8 10 -8 5 0 8
-4 5 -9 -4 -5 -2 -11 3 -13 5 -1 11 -10 13 -18 2 -8 9 -21 16 -28 7 -8 10 -18
7 -23 -4 -5 -1 -9 4 -9 6 0 11 -9 11 -20 0 -11 4 -20 9 -20 9 0 27 -40 22 -49
-2 -2 4 -8 13 -13 9 -5 16 -14 16 -21 0 -7 10 -28 22 -47 12 -19 23 -42 24
-50 2 -8 8 -16 14 -18 5 -2 8 -8 4 -13 -3 -5 -1 -9 4 -9 6 0 13 -11 16 -25 4
-16 11 -23 18 -19 6 4 8 3 4 -4 -3 -6 1 -17 10 -26 8 -9 12 -20 9 -26 -3 -5
-1 -10 4 -10 6 0 11 -7 11 -15 0 -8 5 -15 10 -15 6 0 10 -9 10 -21 0 -11 5
-17 10 -14 6 3 10 -3 10 -14 0 -12 5 -21 10 -21 6 0 10 -7 10 -15 0 -8 5 -15
11 -15 5 0 7 -5 4 -10 -3 -6 1 -13 9 -16 9 -3 16 -15 16 -25 0 -10 5 -19 10
-19 6 0 10 -6 10 -14 0 -8 4 -16 9 -18 5 -1 11 -10 13 -18 2 -8 11 -23 21 -34
9 -11 17 -26 17 -33 0 -7 5 -13 10 -13 6 0 10 -7 10 -15 0 -8 5 -15 10 -15 6
0 10 -6 10 -13 0 -7 8 -22 18 -33 10 -10 24 -33 32 -51 8 -17 18 -29 22 -27 4
3 8 -4 8 -15 0 -11 6 -24 13 -28 20 -12 58 -79 49 -88 -4 -5 -2 -5 4 -2 6 3
17 -5 24 -18 7 -14 17 -25 22 -25 5 0 6 -5 3 -10 -3 -6 1 -13 9 -16 9 -3 16
-12 16 -20 0 -8 5 -14 11 -14 5 0 7 -5 4 -10 -3 -6 1 -13 9 -16 9 -3 16 -15
16 -25 0 -10 6 -19 14 -19 8 0 18 -10 22 -22 4 -13 14 -28 23 -35 9 -7 13 -13
9 -13 -7 0 17 -32 50 -66 7 -8 11 -18 7 -23 -3 -5 4 -13 16 -16 11 -4 18 -9
16 -12 -3 -2 6 -16 19 -30 13 -14 22 -28 20 -31 -3 -2 6 -14 20 -27 13 -12 24
-25 24 -29 0 -8 6 -16 49 -64 17 -18 33 -42 36 -53 4 -10 13 -19 21 -19 8 0
13 -3 13 -8 -3 -19 2 -33 11 -27 6 3 10 0 10 -7 0 -8 9 -20 19 -28 11 -7 18
-17 16 -21 -3 -4 2 -9 10 -13 8 -3 15 -12 15 -20 0 -9 9 -20 20 -26 11 -6 20
-18 20 -26 0 -8 5 -12 10 -9 6 3 10 2 10 -3 0 -5 11 -21 25 -36 13 -14 22 -26
18 -26 -3 0 9 -13 27 -30 18 -16 29 -30 25 -30 -5 0 4 -11 19 -25 14 -13 26
-29 26 -35 0 -6 4 -8 10 -5 5 3 10 2 10 -3 0 -5 13 -23 29 -40 16 -16 27 -33
24 -36 -4 -3 1 -6 11 -6 9 0 14 -4 11 -10 -3 -5 -1 -10 5 -10 6 0 8 -5 4 -12
-4 -6 -3 -8 3 -5 10 7 60 -52 55 -66 -1 -5 2 -6 7 -3 11 7 33 -19 23 -28 -4
-4 -2 -6 3 -4 6 1 20 -7 33 -19 12 -13 20 -23 17 -23 -2 0 16 -20 40 -44 25
-24 42 -46 38 -50 -3 -3 -1 -6 6 -6 7 0 19 -7 27 -15 9 -8 13 -15 10 -15 -3 0
6 -11 20 -25 14 -14 29 -25 33 -25 9 0 25 -30 23 -42 -1 -4 6 -4 15 -1 13 5
15 2 9 -12 -4 -11 -4 -16 0 -13 4 4 19 -6 34 -22 15 -16 30 -26 34 -23 3 3 6
0 6 -8 0 -8 21 -31 45 -53 24 -21 42 -43 39 -47 -3 -5 2 -9 10 -9 8 0 20 -9
26 -20 6 -11 14 -19 18 -16 4 2 13 -2 20 -10 7 -8 10 -14 7 -14 -4 0 0 -7 9
-15 8 -8 20 -15 26 -15 6 0 9 -4 6 -9 -3 -4 6 -13 20 -20 14 -6 22 -16 19 -21
-3 -6 -1 -10 5 -10 6 0 28 -18 50 -40 22 -22 44 -40 50 -40 6 0 8 -4 5 -10 -3
-5 -2 -10 3 -10 6 0 32 -23 60 -50 28 -28 55 -50 61 -50 5 0 13 -9 16 -20 3
-11 13 -20 20 -20 8 0 22 -11 31 -25 9 -14 18 -24 20 -22 2 2 28 -19 58 -47
92 -88 136 -126 146 -126 6 0 10 -6 10 -14 0 -8 9 -18 20 -21 11 -3 20 -11 20
-16 0 -5 7 -9 16 -9 8 0 13 -3 11 -7 -3 -5 1 -14 9 -21 8 -7 14 -10 14 -7 0 4
13 -6 29 -22 46 -45 69 -62 75 -56 3 4 6 -1 6 -11 0 -9 4 -15 9 -12 5 3 11 -1
15 -9 3 -8 17 -20 31 -27 14 -6 25 -18 25 -26 0 -8 6 -12 13 -9 7 3 19 -4 25
-14 7 -10 19 -19 28 -19 8 0 13 -3 11 -7 -3 -5 1 -13 8 -20 11 -10 15 -10 18
0 3 7 6 4 6 -5 1 -10 7 -18 15 -18 8 0 16 -7 20 -15 3 -8 12 -15 21 -15 8 0
15 -4 15 -8 0 -5 12 -15 27 -23 15 -8 38 -24 51 -36 14 -13 28 -21 31 -18 4 2
14 -5 21 -16 8 -10 20 -19 27 -19 7 0 13 -4 13 -10 0 -5 6 -10 14 -10 8 0 17
-7 20 -16 3 -8 10 -13 14 -10 5 3 14 -4 22 -14 8 -10 17 -17 21 -15 4 3 18 -6
30 -20 13 -13 28 -25 32 -25 5 0 15 -7 24 -15 8 -8 19 -13 24 -9 5 3 8 0 7 -8
-2 -7 4 -13 12 -13 8 0 23 -10 34 -23 10 -13 20 -21 23 -18 3 3 10 0 17 -5 47
-39 61 -49 77 -54 11 -4 19 -11 19 -16 0 -6 14 -15 30 -20 17 -6 30 -16 30
-22 0 -6 3 -7 6 -4 4 4 15 -3 25 -15 11 -11 19 -18 19 -14 0 4 7 0 16 -8 8 -9
22 -16 30 -16 8 0 14 -4 14 -10 0 -5 7 -10 15 -10 8 0 15 -4 15 -10 0 -5 7
-10 15 -10 8 0 15 -4 15 -10 0 -5 7 -10 15 -10 8 0 15 -4 15 -10 0 -5 7 -10
15 -10 8 0 15 -5 15 -11 0 -5 4 -8 8 -5 5 3 19 -5 33 -18 26 -24 28 -25 59
-33 11 -3 20 -9 20 -14 0 -5 7 -9 15 -9 8 0 15 -5 15 -11 0 -5 4 -7 10 -4 5 3
10 2 10 -3 0 -5 8 -12 18 -15 18 -6 74 -38 82 -48 7 -8 44 -22 53 -21 4 1 7
-6 7 -15 0 -9 3 -14 6 -10 7 6 65 -20 74 -34 3 -4 12 -9 20 -11 8 -2 34 -16
58 -31 23 -16 51 -29 62 -30 11 -1 20 -8 20 -16 0 -8 3 -11 6 -8 7 7 84 -31
95 -46 3 -4 12 -7 20 -5 8 2 13 -2 12 -8 -1 -6 4 -11 12 -11 16 0 107 -44 116
-56 3 -4 16 -10 29 -12 13 -2 26 -8 29 -13 3 -5 14 -8 24 -6 9 1 15 -2 11 -7
-4 -8 11 -13 19 -6 2 1 11 -6 21 -16 10 -9 22 -15 27 -12 5 4 9 1 9 -4 0 -6 9
-11 20 -11 11 0 20 -6 20 -12 0 -9 4 -8 10 2 6 10 10 11 10 3 0 -7 7 -13 16
-13 8 0 12 -5 9 -10 -3 -6 2 -10 12 -10 11 0 25 -6 32 -13 11 -10 12 -9 6 2
-5 9 5 5 23 -8 18 -12 32 -20 32 -16 0 3 10 -1 23 -10 13 -8 27 -12 30 -8 4 3
7 2 7 -3 0 -5 31 -21 69 -34 39 -13 68 -27 65 -31 -2 -4 7 -6 21 -4 16 1 25
-3 25 -12 0 -8 4 -12 10 -8 5 3 17 2 27 -3 40 -21 93 -40 104 -38 4 0 17 -8
30 -19 13 -12 19 -14 14 -5 -7 12 -6 13 6 3 9 -7 24 -14 35 -16 10 -2 33 -9
49 -16 34 -13 47 -18 57 -20 4 -1 23 -8 42 -16 18 -8 36 -11 40 -8 3 4 6 1 6
-6 0 -7 5 -9 10 -6 6 3 10 2 10 -4 0 -6 7 -8 15 -5 8 4 15 1 15 -5 0 -6 6 -8
14 -5 8 3 17 0 21 -5 3 -6 11 -8 17 -5 6 4 14 1 18 -5 4 -7 23 -13 42 -14 20
-1 34 -5 31 -9 -2 -5 7 -8 21 -8 14 0 26 -4 26 -9 0 -4 10 -7 23 -7 12 1 28
-2 35 -7 7 -5 27 -11 44 -13 18 -2 34 -8 37 -12 3 -4 15 -8 26 -7 11 0 31 -5
44 -12 14 -7 29 -9 34 -6 6 3 16 -2 24 -12 9 -14 13 -15 13 -4 0 12 2 12 10
-1 9 -13 10 -13 10 0 0 13 1 13 10 0 5 -8 12 -11 16 -7 4 4 13 2 19 -3 7 -6
27 -12 44 -13 17 -1 31 -5 31 -8 0 -4 10 -6 23 -5 12 1 25 -2 28 -7 4 -5 21
-10 38 -11 17 0 31 -3 31 -6 0 -3 10 -6 23 -7 34 -3 51 -8 66 -17 11 -7 12 -6
6 5 -7 11 -5 11 9 -1 10 -8 31 -13 47 -12 16 2 29 0 29 -5 0 -5 9 -9 20 -10
13 -1 18 2 13 10 -4 8 -1 7 9 -1 9 -7 30 -14 47 -14 19 -1 28 -5 24 -12 -4 -6
0 -6 8 1 9 8 19 9 25 4 5 -5 36 -12 69 -14 33 -3 60 -6 60 -7 0 -2 15 -4 32
-4 18 -1 35 -5 39 -8 3 -4 12 -4 20 -1 8 3 14 -1 14 -8 0 -10 2 -11 8 -2 7 12
28 13 47 2 6 -3 31 -5 58 -5 26 1 47 -1 47 -4 0 -4 42 -9 102 -11 10 0 20 -5
24 -10 4 -6 11 -6 20 2 11 9 14 8 14 -2 0 -12 2 -12 9 -1 6 11 11 10 25 -3 9
-9 16 -12 16 -7 0 6 7 13 16 16 8 3 13 2 10 -3 -3 -5 3 -11 14 -14 13 -3 18
-1 13 5 -4 7 -1 8 7 3 21 -13 100 -14 100 -2 0 7 5 5 10 -3 5 -8 10 -11 10 -6
0 5 7 3 15 -4 12 -10 15 -10 15 0 0 10 3 10 15 0 12 -10 15 -10 15 1 0 9 3 10
8 4 9 -14 45 -14 54 0 5 6 8 6 8 -2 0 -16 312 -15 322 1 5 8 8 7 8 -2 0 -9 5
-10 18 -4 9 5 26 6 37 2 11 -4 27 -4 35 0 8 5 30 7 48 5 17 -1 32 2 32 7 0 7
5 6 13 0 10 -9 19 -7 37 5 13 9 20 11 16 5 -3 -6 -2 -13 3 -16 5 -3 12 2 15
11 6 15 8 15 16 3 6 -8 10 -10 10 -5 0 6 15 10 33 10 17 -1 38 3 45 8 7 6 12
6 12 0 0 -5 7 -10 15 -10 8 0 12 4 9 9 -4 7 54 13 80 9 4 -1 14 3 21 9 9 8 15
8 20 1 4 -7 14 -6 29 4 12 8 25 12 29 9 3 -4 14 -3 24 1 10 4 40 9 68 11 27 3
53 10 57 17 5 7 8 8 8 1 0 -6 7 -11 15 -11 8 0 12 4 9 9 -3 4 8 8 24 8 16 0
32 3 35 6 4 4 26 8 49 11 24 2 45 8 46 14 3 6 9 6 18 -2 11 -9 14 -9 14 1 0 7
6 10 14 7 8 -3 17 -3 20 1 4 3 12 7 19 9 7 1 30 7 52 13 22 6 49 12 60 13 11
1 24 8 29 16 6 10 10 10 16 1 5 -9 10 -8 21 2 8 7 24 13 37 12 12 -1 22 3 22
7 0 5 11 9 25 9 14 0 25 5 25 11 0 5 5 7 10 4 6 -4 17 -1 25 5 8 7 15 9 15 5
0 -4 7 -2 15 5 12 10 15 10 15 -1 1 -10 4 -9 10 3 6 10 19 15 30 13 13 -3 18
0 14 7 -5 7 -2 9 7 6 8 -3 23 0 34 8 10 8 29 14 42 14 13 0 23 4 23 9 0 7 45
23 75 25 6 1 16 7 23 14 8 7 17 10 22 7 5 -3 10 0 12 5 2 6 13 12 26 13 12 0
22 5 22 10 0 4 5 5 10 2 6 -3 10 -1 10 6 0 7 3 9 7 6 3 -4 17 0 29 8 13 8 34
17 46 19 13 2 22 8 21 13 -1 6 9 9 23 7 13 -1 22 2 18 7 -3 5 -1 9 4 9 5 0 31
10 58 22 27 12 53 21 57 20 4 -1 10 4 13 12 3 9 12 12 21 9 12 -5 14 -3 8 7
-6 9 -4 11 4 6 7 -5 19 0 27 10 9 11 12 12 8 4 -7 -12 -5 -13 8 -3 8 7 18 10
21 6 4 -3 7 -1 7 5 0 7 7 12 16 12 8 0 12 5 9 10 -3 6 4 10 16 10 12 0 28 8
36 17 8 10 11 12 8 4 -6 -9 -1 -9 17 3 14 9 28 13 33 9 4 -5 5 -3 1 4 -4 8 2
15 19 19 14 3 25 10 25 14 0 4 8 7 18 6 9 0 16 4 15 11 -2 7 4 10 12 7 8 -4
15 -1 15 6 0 6 5 8 10 5 6 -3 13 1 16 10 4 9 12 14 19 11 7 -2 21 3 31 12 11
9 39 28 64 41 91 49 84 45 124 78 7 6 17 9 20 6 3 -4 6 -1 6 6 0 7 5 9 10 6 6
-3 10 -2 10 3 0 5 16 17 35 26 19 9 35 21 35 26 0 5 7 6 17 3 10 -4 14 -2 10
4 -4 6 4 14 18 17 14 4 23 11 20 16 -3 6 0 10 7 10 14 0 97 56 110 75 5 6 8 6
8 0 0 -5 7 -1 15 9 8 11 15 17 15 13 0 -6 26 13 55 40 8 7 18 13 23 13 6 0 12
7 16 15 3 8 12 15 20 15 7 0 17 7 20 16 4 9 9 14 12 11 7 -6 8 -5 69 48 22 19
46 35 53 35 7 0 10 5 7 10 -3 6 -1 10 4 10 12 0 45 25 70 53 8 9 20 17 25 17
5 0 17 10 27 22 11 11 19 17 19 12 0 -5 9 5 20 21 11 17 20 26 20 20 0 -5 11
1 24 15 30 32 76 71 76 65 0 -3 23 18 50 45 28 28 55 50 60 50 6 0 10 8 10 17
0 9 2 14 5 11 3 -3 34 23 69 58 36 34 67 60 70 56 3 -3 6 0 6 6 0 7 13 25 30
40 16 16 27 32 23 36 -4 4 0 4 10 0 9 -3 17 -2 17 3 0 5 33 44 74 86 41 41 72
77 70 79 -2 3 7 11 21 18 14 7 25 17 25 22 0 4 19 27 43 51 62 63 102 111 99
120 -1 4 5 7 14 7 8 0 12 5 9 10 -3 6 1 13 9 16 8 3 18 14 21 25 4 11 11 17
16 14 5 -4 9 -1 9 5 0 6 12 22 26 35 15 14 24 25 19 25 -4 0 3 9 16 21 13 11
17 17 9 13 -8 -4 7 14 32 41 26 27 45 52 42 57 -3 4 -1 8 4 8 5 0 20 15 33 34
13 19 27 32 31 30 5 -3 8 -2 7 3 -3 20 2 34 11 28 9 -6 12 1 9 22 0 3 6 10 15
15 9 5 16 15 16 23 0 7 4 15 8 17 4 1 23 24 42 49 52 70 63 86 63 95 0 5 7 14
16 20 9 7 27 33 39 58 14 27 28 43 34 40 7 -4 8 -2 4 4 -4 7 -2 12 5 12 7 0
10 3 6 6 -3 4 7 26 23 50 17 23 30 48 30 54 0 6 7 13 16 17 8 3 13 12 10 20
-3 8 -2 11 3 8 5 -3 12 -1 16 5 3 5 1 10 -6 10 -8 0 -7 4 3 13 9 6 26 31 38
55 12 23 27 42 33 42 6 0 8 3 4 6 -6 7 30 81 44 90 5 3 7 10 4 15 -4 5 1 12
10 15 10 4 13 13 10 25 -4 13 -2 19 6 17 7 -2 14 3 15 10 1 6 2 17 3 23 0 5 5
7 11 4 6 -3 7 1 4 9 -3 9 -1 16 5 16 6 0 10 3 9 8 -1 4 6 22 15 40 10 17 14
32 10 32 -5 0 0 5 10 11 9 5 17 19 17 29 0 10 5 22 10 25 6 4 8 11 5 16 -4 5
-1 9 4 9 6 0 10 3 9 8 -1 4 3 17 10 28 6 12 8 24 5 28 -3 3 -1 6 5 6 7 0 12 9
12 20 0 11 5 20 10 20 6 0 9 3 8 8 -1 4 3 17 10 28 6 12 8 24 5 28 -3 3 -1 6
6 6 7 0 10 4 6 9 -3 5 -1 12 5 16 6 4 8 11 5 16 -4 5 -1 9 5 9 6 0 8 5 5 10
-3 6 -2 10 4 10 6 0 8 7 5 15 -4 8 -1 15 6 15 6 0 9 4 5 9 -3 5 -1 12 5 16 6
4 8 11 5 16 -4 5 -1 9 5 9 7 0 9 8 5 19 -4 13 0 23 12 30 10 5 17 12 16 15 -2
3 -3 7 -2 9 0 1 2 11 4 23 3 11 11 33 19 49 8 16 12 33 9 38 -3 5 0 13 6 17 7
4 13 17 14 28 1 12 6 22 11 22 5 0 7 3 3 6 -3 3 1 24 9 47 8 23 12 47 10 54
-3 7 0 12 6 10 6 -1 12 10 13 24 1 14 6 32 11 40 5 8 7 22 6 32 -2 9 2 17 9
17 7 0 9 3 6 6 -3 4 -2 15 4 25 7 14 6 19 -3 19 -10 0 -10 2 0 9 7 4 14 19 16
32 1 13 7 33 13 44 5 11 9 36 9 57 -1 20 3 34 8 30 5 -3 7 2 3 11 -3 10 -3 17
1 17 7 0 13 35 15 87 1 12 5 19 10 16 6 -4 7 5 3 20 -3 15 -1 29 5 33 8 4 7 9
-2 15 -11 7 -11 9 -1 9 7 0 10 4 7 10 -3 5 -2 10 2 10 5 0 7 16 5 36 -3 28 -1
35 8 29 10 -6 11 -4 4 6 -13 21 -12 32 5 52 13 16 13 17 0 12 -10 -4 -16 0
-16 9 0 8 4 13 9 10 4 -3 7 29 6 70 -2 46 1 76 7 76 7 0 7 3 0 8 -12 8 -13 42
-1 60 4 7 1 15 -9 18 -11 5 -13 10 -5 19 6 7 7 16 3 18 -5 3 -10 20 -11 39 -1
18 -6 42 -11 53 -41 93 -64 135 -72 135 -6 0 -8 4 -4 9 3 5 -1 16 -9 24 -8 8
-12 17 -9 21 4 3 1 6 -5 6 -7 0 -12 6 -12 14 0 8 -7 17 -16 20 -9 4 -14 9 -11
12 3 4 1 12 -6 20 -30 33 -35 42 -30 48 4 3 -1 6 -11 6 -9 0 -14 5 -11 10 3 6
1 10 -4 10 -6 0 -11 6 -11 13 0 7 -9 18 -20 25 -11 7 -20 19 -20 28 0 8 -4 12
-10 9 -5 -3 -10 -1 -10 5 0 6 -34 45 -75 86 -41 41 -75 73 -75 70 0 -3 -15 10
-34 29 -19 18 -37 31 -40 28 -3 -4 -6 -1 -6 5 0 7 -4 12 -10 12 -9 0 -72 39
-97 60 -7 5 -19 10 -28 10 -8 0 -15 5 -15 10 0 6 -9 10 -20 10 -11 0 -20 4
-20 8 0 9 -70 37 -82 34 -5 -1 -8 3 -8 9 0 5 -4 8 -9 4 -5 -3 -12 -1 -16 5 -4
6 -11 8 -16 5 -5 -4 -9 -2 -9 3 0 5 -6 9 -12 10 -25 2 -86 24 -111 39 -6 3 -7
1 -4 -5 5 -6 0 -8 -13 -5 -11 3 -17 10 -13 16 3 6 1 7 -6 3 -6 -4 -18 -2 -26
4 -12 10 -15 10 -15 0 0 -9 -3 -10 -14 -1 -7 6 -25 12 -40 13 -14 1 -26 6 -26
11 0 5 -6 4 -14 -2 -9 -7 -15 -8 -18 -2 -1 6 -22 11 -45 12 -24 2 -43 6 -43
10 0 4 -17 8 -37 8 -62 0 -73 2 -99 12 -18 6 -23 6 -18 -3 5 -7 3 -8 -6 -3
-14 8 -43 12 -137 17 -35 1 -63 7 -63 13 0 5 -4 4 -9 -3 -11 -17 -21 -17 -32
0 -7 11 -9 11 -9 -1 0 -11 -3 -11 -17 0 -15 12 -16 12 -8 -1 7 -13 6 -13 -7
-2 -13 10 -17 10 -21 0 -4 -11 -6 -11 -6 0 -1 9 -6 10 -20 2 -14 -7 -21 -6
-24 3 -3 9 -7 9 -19 -1 -10 -8 -19 -9 -22 -3 -8 13 -46 10 -46 -4 0 -6 -3 -7
-8 0 -11 15 -42 18 -42 3 0 -10 -2 -10 -9 0 -11 17 -21 17 -32 0 -5 -7 -9 -8
-9 -2 0 6 -7 11 -15 11 -8 0 -15 -5 -15 -11 0 -6 -4 -5 -9 3 -6 9 -10 10 -16
2 -5 -9 -10 -9 -21 0 -11 9 -14 9 -14 0 0 -8 -5 -9 -18 -2 -11 6 -24 6 -33 0
-20 -13 -31 -11 -23 4 6 9 4 9 -7 1 -8 -6 -45 -12 -84 -13 -93 -4 -140 -8
-140 -11 0 -1 -25 -3 -55 -5 -30 -2 -56 -4 -57 -5 -2 -1 -15 -2 -30 -3 -16 0
-31 -5 -35 -11 -5 -7 -8 -6 -8 3 0 9 -4 10 -12 4 -7 -6 -28 -10 -45 -11 -61
-1 -64 -2 -57 -14 6 -10 4 -10 -8 0 -9 7 -19 9 -22 4 -3 -5 -23 -8 -45 -8 -22
1 -38 -1 -35 -5 2 -4 -8 -7 -21 -8 -58 -4 -65 -6 -65 -14 0 -5 -6 -4 -14 2
-10 8 -15 9 -18 1 -2 -6 -10 -12 -18 -13 -8 -2 -21 -7 -29 -11 -10 -6 -12 -5
-7 2 4 7 2 12 -3 12 -6 0 -11 -4 -11 -10 0 -5 -6 -7 -14 -4 -8 3 -16 1 -19 -3
-3 -5 -20 -8 -36 -7 -17 1 -31 -3 -31 -8 0 -6 -7 -8 -15 -5 -8 4 -17 2 -20 -3
-3 -5 -12 -7 -20 -3 -8 3 -15 1 -15 -5 0 -6 -11 -9 -25 -7 -14 1 -25 -2 -25
-7 0 -5 -4 -6 -10 -3 -5 3 -10 2 -10 -2 0 -5 -13 -8 -30 -7 -16 1 -27 -2 -24
-7 3 -5 -6 -10 -20 -10 -44 -2 -51 -5 -49 -15 1 -7 -9 -9 -24 -6 -14 3 -23 1
-20 -4 3 -5 -6 -10 -19 -11 -45 -4 -54 -6 -54 -14 0 -4 -12 -6 -26 -4 -15 1
-28 -3 -31 -11 -3 -8 -14 -14 -25 -14 -13 0 -17 -4 -12 -12 6 -10 4 -10 -8 0
-12 9 -18 10 -23 2 -4 -6 -14 -9 -22 -6 -8 3 -11 1 -8 -4 3 -6 1 -10 -4 -10
-19 0 -26 -2 -46 -13 -11 -6 -23 -12 -27 -13 -5 -1 -11 -3 -15 -4 -5 -1 -12
-2 -16 -1 -4 1 -10 -6 -13 -14 -3 -8 -10 -12 -15 -9 -5 3 -18 -2 -30 -10 -12
-8 -27 -12 -34 -10 -7 3 -15 -2 -19 -11 -3 -9 -10 -14 -15 -10 -5 3 -12 1 -16
-5 -4 -6 -10 -8 -15 -5 -4 3 -10 -2 -14 -10 -3 -8 -12 -15 -21 -15 -17 0 -56
-20 -66 -34 -4 -5 -11 -6 -17 -2 -6 3 -14 1 -19 -6 -4 -7 -18 -19 -30 -25 -57
-32 -68 -39 -81 -51 -7 -7 -18 -10 -23 -7 -5 4 -9 1 -9 -4 0 -6 -5 -11 -10
-11 -6 0 -22 -12 -36 -27 -14 -16 -27 -26 -29 -23 -2 5 -56 -33 -82 -58 -7 -7
-13 -11 -13 -7 0 3 -11 -6 -25 -21 -14 -15 -25 -23 -25 -18 -1 5 -7 -2 -15
-16 -8 -14 -14 -22 -15 -18 0 11 -50 -42 -50 -53 0 -6 -4 -8 -8 -5 -5 3 -16
-4 -25 -15 -9 -10 -15 -19 -12 -19 3 0 -13 -18 -35 -41 -22 -23 -37 -46 -33
-52 3 -5 1 -7 -4 -4 -6 4 -22 -15 -35 -43 -14 -27 -27 -47 -31 -44 -3 3 -4 -2
-3 -13 2 -10 -1 -24 -7 -30 -5 -7 -6 -13 -2 -13 4 0 3 -6 -2 -12 -5 -7 -11
-31 -12 -53 -2 -22 -7 -46 -13 -52 -7 -9 -7 -13 1 -13 8 0 9 -6 3 -17 -5 -10
-8 -48 -7 -85 1 -38 -2 -68 -7 -68 -5 0 -6 -5 -2 -11 11 -18 10 -418 -1 -423
-5 -3 -4 -5 2 -5 9 -1 10 -8 3 -25 -5 -15 -5 -27 3 -35 8 -8 8 -11 -1 -11 -7
0 -12 -5 -12 -11 0 -5 4 -8 8 -5 5 3 9 -1 9 -9 0 -8 -4 -12 -9 -9 -4 3 -8 0
-8 -5 0 -6 5 -11 12 -11 6 0 3 -7 -8 -16 -18 -15 -18 -15 0 -10 16 6 17 4 6
-9 -7 -8 -10 -21 -7 -30 4 -8 2 -17 -3 -20 -5 -3 -7 -17 -4 -30 3 -16 0 -25
-8 -25 -9 0 -8 -3 2 -10 8 -5 10 -10 4 -10 -7 0 -14 -9 -17 -20 -3 -11 -1 -18
4 -14 5 3 6 -2 3 -10 -3 -8 -11 -17 -19 -19 -8 -3 -11 -15 -8 -31 3 -15 1 -26
-5 -26 -6 0 -9 -9 -7 -20 2 -11 0 -20 -6 -20 -5 0 -9 -9 -9 -19 0 -11 -5 -23
-10 -26 -6 -4 -8 -10 -5 -15 3 -5 1 -11 -4 -15 -5 -3 -8 -14 -6 -25 2 -12 0
-18 -6 -15 -5 4 -9 0 -9 -8 0 -7 -9 -32 -20 -55 -11 -22 -20 -46 -20 -52 0 -5
-5 -10 -10 -10 -6 0 -9 -3 -9 -7 3 -21 -2 -33 -13 -27 -7 5 -8 3 -3 -6 4 -7 3
-15 -3 -19 -6 -3 -12 -13 -14 -21 -2 -8 -11 -23 -20 -34 -10 -11 -18 -25 -18
-32 0 -6 -7 -14 -15 -18 -8 -3 -15 -11 -15 -18 0 -8 -9 -20 -19 -28 -11 -7
-18 -17 -16 -21 3 -4 -2 -10 -11 -13 -8 -3 -12 -10 -9 -16 3 -5 -1 -10 -9 -10
-8 0 -18 -9 -21 -20 -4 -11 -11 -18 -16 -15 -5 4 -9 2 -9 -3 0 -21 -180 -187
-248 -230 -20 -12 -36 -27 -35 -32 2 -5 -4 -7 -12 -4 -8 4 -15 1 -15 -5 0 -6
-3 -10 -7 -10 -14 3 -73 -23 -73 -32 0 -4 -6 -6 -14 -3 -8 3 -17 0 -21 -5 -3
-6 -11 -9 -16 -6 -5 4 -9 1 -9 -6 0 -7 -3 -9 -7 -6 -3 4 -12 2 -20 -4 -7 -6
-13 -9 -13 -5 0 4 -13 0 -30 -9 -16 -8 -40 -15 -55 -15 -14 0 -25 -4 -25 -8 0
-8 -24 -13 -72 -16 -14 0 -24 -5 -21 -10 3 -5 -6 -7 -21 -4 -14 3 -26 1 -26
-4 0 -5 -4 -6 -10 -3 -5 3 -18 1 -29 -5 -14 -7 -22 -7 -26 0 -4 7 -11 7 -18 2
-7 -5 -30 -9 -52 -8 -22 1 -46 -2 -52 -7 -8 -6 -13 -5 -13 2 0 7 -8 8 -24 1
-13 -5 -26 -7 -28 -4 -3 2 -31 5 -62 6 -32 1 -60 6 -63 11 -3 5 -9 3 -14 -4
-6 -11 -11 -11 -21 -1 -6 6 -31 12 -55 12 -24 0 -43 4 -43 10 0 5 -16 9 -36 8
-20 -1 -39 3 -42 9 -4 5 -14 10 -22 11 -22 1 -43 7 -55 13 -5 4 -18 5 -27 4
-9 -2 -19 3 -22 11 -3 7 -12 11 -21 8 -8 -3 -15 -1 -15 5 0 6 -3 10 -7 9 -18
-4 -73 14 -68 23 4 5 -1 6 -9 3 -9 -3 -16 -1 -16 5 0 7 -6 11 -12 9 -7 -1 -32
8 -54 20 -23 11 -44 18 -48 15 -3 -4 -6 -1 -6 5 0 7 -9 12 -20 12 -11 0 -20 5
-20 10 0 6 -7 10 -15 10 -8 0 -15 5 -15 11 0 6 -7 9 -15 5 -9 -3 -15 0 -15 9
0 13 -18 20 -42 16 -5 0 -8 4 -8 10 0 6 -7 8 -16 5 -8 -3 -12 -2 -9 4 3 5 -5
15 -19 22 -14 6 -26 15 -26 20 0 4 -9 8 -19 8 -11 0 -21 4 -23 9 -1 5 -10 11
-18 13 -8 2 -22 12 -32 23 -9 11 -17 16 -18 12 0 -8 -21 7 -48 35 -9 10 -24
18 -34 18 -9 0 -20 9 -23 21 -4 11 -9 18 -12 15 -3 -3 -11 0 -19 7 -32 29 -44
37 -44 32 0 -3 -15 10 -34 29 -19 19 -37 32 -39 29 -3 -2 -13 6 -23 19 -11 13
-31 29 -46 37 -16 8 -28 20 -28 28 0 7 -4 13 -10 13 -5 0 -19 10 -32 23 -13
12 -38 34 -56 50 -19 15 -31 27 -29 27 3 0 -11 16 -30 35 -19 19 -39 35 -45
35 -5 0 -6 5 -3 10 3 6 -2 10 -11 10 -10 0 -14 3 -11 6 3 4 -8 20 -24 35 -17
16 -29 29 -26 29 5 0 -29 41 -79 95 -12 13 -28 37 -35 54 -7 16 -17 27 -21 25
-4 -3 -8 1 -8 9 0 7 -8 22 -17 33 -10 11 -19 26 -21 34 -2 8 -11 23 -19 33 -9
9 -14 20 -10 23 3 3 -3 15 -14 27 -10 11 -19 29 -19 39 0 10 -5 18 -11 18 -5
0 -8 4 -5 9 3 5 -1 14 -9 21 -8 7 -15 25 -15 41 0 16 -4 29 -8 29 -4 0 -9 12
-10 27 -1 15 -6 29 -10 32 -7 5 -12 34 -15 84 -1 9 -5 17 -9 17 -4 0 -6 14 -4
30 2 17 -1 30 -5 30 -5 0 -9 5 -9 11 0 5 6 7 13 3 9 -5 9 -4 0 6 -6 7 -9 19
-6 26 3 8 -1 14 -8 14 -12 0 -12 2 0 9 9 6 10 10 2 16 -9 5 -9 10 0 21 9 11 9
14 -1 14 -10 0 -10 3 0 15 9 11 9 15 1 15 -9 0 -9 5 0 21 9 17 8 23 -2 30 -8
5 -9 9 -4 9 10 0 17 36 18 95 1 11 6 23 11 27 7 5 6 8 -3 8 -11 0 -10 4 5 16
10 8 13 13 7 9 -7 -3 -13 -1 -13 4 0 6 4 11 9 11 5 0 7 10 3 22 -3 14 -1 19 6
14 7 -4 10 1 7 14 -2 11 1 22 6 25 5 4 7 10 4 15 -3 5 -1 11 4 15 6 3 8 12 4
20 -3 8 0 15 7 15 6 0 8 5 5 10 -3 6 -1 10 5 10 6 0 9 4 5 9 -3 5 -1 12 4 16
6 3 8 12 5 19 -3 7 3 16 13 20 15 6 15 8 3 16 -10 7 -11 10 -2 10 6 0 12 6 12
14 0 8 6 21 13 28 6 7 13 19 15 26 1 7 14 31 27 52 14 22 22 40 18 40 -5 1 2
9 14 19 12 10 20 21 17 24 -3 3 3 16 15 28 12 13 21 29 21 36 0 7 4 13 9 13 5
0 14 14 21 30 7 17 22 37 34 46 11 8 20 18 19 22 -1 4 7 17 17 30 11 12 21 28
23 34 1 7 20 29 42 50 21 21 35 38 30 38 -6 0 -2 5 8 11 9 5 17 17 17 25 0 8
4 13 8 10 5 -3 15 6 22 19 7 13 17 22 22 19 4 -3 8 -1 8 5 0 6 25 36 55 66 30
31 55 61 55 67 0 6 2 9 6 6 3 -3 42 31 87 76 46 44 87 82 92 83 5 1 12 9 15
18 3 9 8 15 12 13 3 -2 31 20 62 48 31 29 56 49 56 46 0 -3 9 5 20 18 11 13
20 20 20 16 0 -4 15 9 34 28 18 20 36 33 39 30 3 -3 10 4 17 15 6 12 16 21 23
21 7 0 19 9 27 20 8 11 20 20 27 20 7 0 17 9 23 21 7 11 14 18 17 15 3 -3 17
6 30 20 12 14 23 22 23 18 0 -4 11 5 24 19 16 17 26 22 29 14 3 -7 6 -4 6 6 1
9 8 17 16 17 8 0 15 5 15 10 0 6 8 14 17 17 16 6 48 31 79 61 8 7 14 10 14 5
0 -4 7 1 15 11 8 11 15 17 15 13 0 -5 12 4 28 18 15 14 38 28 50 32 18 4 21 8
10 14 -10 7 -10 9 3 9 9 0 22 7 29 15 7 9 15 13 18 10 3 -2 13 5 23 17 11 11
19 17 19 12 0 -5 7 0 15 10 8 11 15 16 15 11 0 -5 7 0 15 11 8 10 15 16 15 12
0 -5 9 0 19 10 35 31 49 41 53 37 2 -2 17 7 32 20 16 14 35 25 43 25 7 0 13 5
13 10 0 6 11 15 25 20 14 5 25 14 25 20 0 5 3 9 8 8 8 -3 64 32 74 47 4 5 8 6
8 1 0 -6 7 -1 15 10 8 10 15 15 15 9 0 -7 3 -7 8 0 11 16 119 86 160 105 13 5
20 14 17 20 -3 6 1 7 9 4 9 -3 16 -2 16 4 0 5 14 15 30 22 17 7 30 16 30 20 0
4 8 10 18 13 9 3 30 14 47 24 28 17 36 23 67 49 7 5 16 10 20 10 4 -1 17 7 28
17 11 9 25 17 30 17 6 0 10 5 10 11 0 6 5 9 12 7 6 -2 22 6 36 19 14 13 31 23
38 23 8 0 14 5 14 10 0 6 7 10 15 10 8 0 15 4 15 9 0 5 11 12 25 15 14 4 25
11 25 16 0 6 7 10 15 10 8 0 15 5 15 10 0 6 7 10 15 10 8 0 15 5 15 11 0 5 5
7 10 4 6 -3 13 0 16 9 3 9 12 12 21 9 10 -4 14 -2 10 4 -3 5 8 17 26 26 18 10
46 26 62 37 17 11 37 23 45 27 8 3 40 23 71 44 31 21 59 35 63 32 3 -4 6 -1 6
5 0 6 16 19 35 28 19 9 35 21 35 26 0 6 7 8 15 4 8 -3 15 -1 15 5 0 5 11 14
25 21 13 6 22 15 19 20 -3 5 -2 8 3 7 14 -4 63 13 59 20 -2 3 13 15 35 25 21
11 39 23 39 28 0 5 5 6 10 3 6 -3 10 -1 10 4 0 6 7 11 15 11 9 0 18 7 21 15 4
8 10 12 15 9 5 -3 9 0 9 7 0 7 3 10 6 6 4 -3 13 1 21 9 8 8 19 12 24 9 5 -4 9
1 9 10 0 9 5 13 10 10 6 -3 10 -1 10 5 0 6 4 9 8 6 5 -3 19 5 33 17 14 12 31
23 39 25 8 2 17 8 18 13 2 5 8 7 13 3 5 -3 9 2 9 10 0 9 4 15 8 14 11 -4 82
35 82 44 0 5 7 8 15 8 8 0 15 5 15 11 0 5 5 7 10 4 6 -3 10 -1 10 5 0 6 5 8
10 5 6 -3 10 -1 10 4 0 6 7 11 15 11 9 0 18 7 21 15 4 8 10 12 15 9 5 -3 9 0
9 5 0 6 7 11 15 11 8 0 15 5 15 11 0 5 4 8 9 5 5 -3 12 1 15 10 4 9 9 14 12
11 3 -3 29 10 56 30 28 19 58 36 66 37 8 2 20 10 27 19 7 9 15 17 19 17 4 0
22 11 40 25 18 14 36 22 39 18 4 -3 7 1 7 10 0 10 3 16 8 16 18 -3 30 2 52 24
14 12 25 20 25 17 0 -2 10 2 22 11 13 9 20 19 15 24 -4 5 -2 6 3 3 12 -7 77
27 68 36 -3 3 1 6 10 6 10 0 17 6 17 13 0 9 3 8 9 -2 7 -11 10 -9 16 8 3 12
11 19 16 16 5 -4 9 -1 9 5 0 6 4 9 9 6 5 -3 12 1 15 10 3 8 10 12 16 9 6 -3
13 1 16 9 3 9 12 16 20 16 8 0 23 8 34 18 11 9 29 25 40 35 11 9 23 16 26 16
7 -2 39 19 64 41 9 8 23 16 31 18 8 2 16 8 17 13 2 5 10 9 18 9 8 0 14 7 14
15 0 9 6 12 15 9 8 -4 15 -1 15 5 0 6 6 11 14 11 8 0 17 7 20 16 4 9 9 14 13
10 3 -3 12 3 20 14 8 11 18 20 24 20 11 0 111 70 121 85 4 5 8 6 8 2 0 -8 13
2 51 36 10 9 19 14 19 11 0 -3 7 1 15 8 34 30 43 36 49 31 3 -3 8 2 12 11 4 9
20 24 36 32 32 17 63 40 86 66 9 9 19 15 24 12 4 -3 11 2 14 10 3 9 10 14 14
11 4 -3 11 2 14 11 3 8 10 13 15 9 6 -3 15 4 21 15 6 11 15 20 20 20 9 0 43
26 76 58 8 7 14 11 14 8 0 -3 8 2 18 12 41 39 71 60 76 55 3 -4 6 -1 6 5 0 6
9 14 20 17 11 3 20 14 20 22 0 9 3 13 6 10 4 -4 15 3 25 15 11 11 19 18 19 15
0 -4 8 1 18 11 44 41 82 72 82 65 0 -5 5 0 11 10 6 9 15 15 20 11 5 -3 8 0 7
8 -2 7 3 12 10 11 6 -2 12 2 12 8 0 16 29 41 40 34 5 -3 10 1 10 9 0 9 3 16 8
16 4 0 27 18 52 40 71 63 74 65 85 62 5 -2 7 -1 3 3 -6 6 68 85 81 85 3 0 12
9 19 20 7 12 17 18 23 15 5 -4 8 -3 7 2 -3 8 38 54 44 48 1 -2 14 12 28 31 14
18 29 34 33 34 5 0 27 20 49 45 22 25 45 42 51 38 6 -3 7 -1 3 5 -4 7 -2 12 4
12 6 0 8 5 5 10 -3 6 -1 10 5 10 6 0 20 9 32 20 12 11 18 20 14 20 -4 0 7 15
26 33 18 19 37 31 42 29 5 -3 6 2 3 12 -4 9 -3 15 2 12 4 -3 26 16 49 42 54
63 110 121 114 119 2 -1 2 0 1 2 -6 10 19 41 33 41 8 0 12 5 9 10 -3 6 -1 10
4 10 6 0 11 7 11 16 0 8 5 12 10 9 6 -3 10 -2 10 4 0 6 13 24 30 41 16 16 27
30 24 30 -4 0 8 14 26 30 18 17 29 30 24 30 -4 0 1 7 12 15 10 8 16 15 12 15
-6 0 13 26 52 69 8 9 21 29 29 43 8 15 19 24 24 21 6 -4 8 0 5 9 -4 8 2 21 13
29 10 7 19 19 19 25 0 6 11 23 25 38 13 14 25 29 25 31 0 3 0 12 0 20 0 8 5
14 12 12 7 -1 12 3 13 8 0 6 11 28 24 50 14 22 25 43 25 47 1 4 9 17 19 28 9
11 17 27 17 35 0 8 3 15 8 15 9 0 47 88 43 103 -1 5 3 6 8 3 8 -6 36 50 32 67
0 4 4 7 9 7 6 0 10 9 10 20 0 11 4 20 10 20 5 0 10 3 9 8 -2 14 14 52 22 52 5
0 5 7 2 17 -5 12 -3 14 8 8 11 -7 11 -5 -1 10 -8 10 -10 16 -4 12 11 -6 24 22
23 47 -1 5 4 12 10 15 5 4 12 19 15 35 3 16 9 32 14 35 5 3 8 14 6 24 -1 9 2
17 7 17 5 0 9 11 9 24 0 14 5 28 10 31 6 4 8 10 5 15 -3 4 1 13 8 18 7 6 12
26 12 44 -1 18 3 36 9 40 5 3 10 15 11 25 4 31 10 48 20 55 6 5 5 8 -4 8 -11
0 -11 3 -1 15 6 8 9 19 5 25 -3 5 -1 10 4 10 6 0 11 5 11 11 0 5 -6 7 -12 3
-10 -6 -9 -4 0 8 7 9 14 30 14 47 1 17 8 33 16 36 13 5 12 8 -3 25 -12 13 -14
20 -6 20 7 0 11 6 8 13 -2 6 0 20 5 30 6 11 5 17 -2 17 -6 0 -8 4 -5 10 12 19
14 50 4 56 -6 3 -6 10 -1 17 13 17 22 58 11 51 -5 -3 -9 -1 -9 5 0 5 5 13 10
16 6 3 10 11 10 16 0 6 -4 8 -8 5 -5 -3 -7 5 -6 17 1 12 3 22 4 22 1 0 3 52 3
117 1 64 0 115 -3 113 -3 -2 -5 42 -5 96 0 54 -2 99 -5 99 -3 0 -5 12 -4 28 1
15 -3 35 -8 46 -7 12 -7 16 0 12 6 -3 13 -2 17 4 3 5 -1 10 -9 10 -9 0 -13 7
-11 20 2 11 -2 20 -8 20 -8 0 -8 3 2 9 9 6 10 10 2 16 -9 5 -9 11 1 23 10 12
10 14 1 8 -7 -4 -14 -2 -14 3 -5 39 -7 52 -9 56 -1 3 -3 8 -4 13 -1 4 -5 13
-9 20 -5 6 -6 12 -3 12 3 0 -1 18 -9 39 -7 22 -11 42 -8 45 4 3 1 6 -5 6 -7 0
-12 11 -12 25 0 14 -4 25 -8 25 -4 0 -8 10 -9 22 -1 11 -6 24 -10 27 -4 3 -10
15 -11 26 -2 11 -9 23 -15 27 -7 4 -8 8 -4 8 5 0 -3 21 -17 48 -14 26 -27 54
-28 62 -2 8 -10 22 -18 30 -8 8 -16 21 -18 29 -2 8 -12 27 -23 43 -11 15 -17
28 -12 28 4 0 0 5 -9 11 -10 5 -18 17 -18 24 0 8 -5 15 -11 15 -5 0 -8 4 -5 8
3 5 -6 20 -19 34 -13 14 -21 29 -18 32 4 3 1 6 -6 6 -7 0 -9 5 -6 10 3 6 -1
10 -10 10 -9 0 -13 5 -10 10 3 6 3 10 -2 10 -4 0 -19 18 -33 40 -13 22 -28 40
-32 40 -4 0 -8 6 -8 13 0 7 -9 20 -20 30 -12 10 -18 23 -14 29 4 6 3 8 -4 4
-6 -3 -17 3 -25 14 -7 11 -17 17 -21 12 -4 -4 -7 -2 -6 3 5 23 -1 35 -17 35
-9 0 -14 3 -10 6 3 3 -18 30 -46 59 -29 30 -58 63 -66 74 -8 11 -18 18 -23 15
-4 -3 -8 2 -8 10 0 9 -7 16 -17 16 -9 0 -14 3 -10 6 7 8 -17 34 -32 34 -5 0
-13 9 -16 21 -4 11 -9 18 -13 15 -3 -3 -18 8 -34 26 -15 17 -28 27 -28 22 0
-5 -9 5 -20 21 -11 17 -20 26 -20 20 0 -5 -10 1 -21 15 -11 14 -17 18 -14 10
4 -8 -6 0 -23 18 -17 17 -35 32 -39 32 -5 0 -15 9 -23 19 -7 11 -17 18 -22 15
-4 -3 -11 2 -14 10 -3 9 -12 16 -20 16 -8 0 -14 5 -14 10 0 6 -6 10 -12 10 -7
1 -29 14 -48 30 -19 17 -40 30 -47 30 -7 0 -13 4 -13 8 0 8 -51 36 -58 32 -2
-1 -10 7 -18 17 -7 10 -14 14 -14 9 0 -5 -9 1 -20 14 -11 13 -20 17 -20 10 0
-8 -6 -6 -17 6 -10 10 -25 20 -33 22 -8 2 -17 7 -20 11 -7 10 -73 36 -83 33
-5 -1 -6 2 -3 7 7 11 -22 23 -36 14 -7 -3 -8 -1 -4 5 6 11 -12 17 -36 13 -5 0
-7 5 -5 12 1 7 -7 12 -20 11 -13 -1 -23 3 -23 7 0 5 -7 9 -15 9 -8 0 -15 5
-15 10 0 6 -12 10 -26 10 -16 0 -23 4 -18 12 4 6 3 8 -3 5 -5 -3 -22 1 -37 9
-16 7 -35 14 -43 14 -8 0 -11 4 -8 10 4 6 -1 7 -11 3 -11 -4 -22 1 -30 12 -10
14 -14 15 -14 4 0 -12 -2 -12 -10 1 -5 8 -10 12 -10 8 0 -4 -12 -1 -27 7 -15
8 -30 12 -35 9 -4 -3 -8 0 -8 6 0 6 -4 8 -10 5 -5 -3 -10 -1 -10 5 0 6 -4 9
-9 6 -5 -3 -24 2 -42 11 -19 10 -41 18 -49 19 -8 0 -28 6 -43 12 -16 7 -33 9
-39 6 -7 -4 -8 -2 -4 4 4 6 -1 10 -11 10 -28 -1 -47 6 -61 22 -12 13 -13 13
-6 0 7 -13 5 -13 -9 -1 -9 7 -17 10 -17 5 0 -4 -5 -3 -12 4 -7 7 -27 12 -45
12 -18 0 -33 5 -33 10 0 6 -8 10 -18 10 -10 0 -22 3 -25 7 -4 3 -24 8 -44 10
-21 2 -40 7 -43 12 -3 4 -15 7 -27 8 -39 1 -44 3 -40 11 3 4 -7 8 -21 9 -52 3
-77 8 -82 15 -3 4 -20 8 -38 10 -18 1 -32 5 -32 8 0 3 -8 6 -17 7 -70 6 -94
11 -109 24 -16 12 -17 12 -9 -1 8 -13 6 -13 -8 -2 -9 8 -21 11 -27 7 -5 -3
-10 -1 -10 6 0 9 -3 9 -14 0 -8 -7 -16 -8 -18 -2 -1 5 -19 10 -38 12 -19 2
-41 8 -49 13 -12 9 -13 8 -6 -4 8 -13 7 -13 -9 0 -10 8 -31 13 -47 12 -18 -2
-29 1 -29 8 0 10 -3 10 -14 1 -11 -9 -16 -9 -21 -1 -4 7 -16 10 -26 7 -10 -3
-22 -1 -25 4 -3 5 -10 7 -15 3 -5 -3 -17 0 -26 8 -12 9 -15 9 -9 1 4 -7 2 -13
-3 -13 -6 0 -11 4 -11 9 0 4 -16 7 -35 6 -19 -1 -35 2 -35 7 0 4 -5 8 -11 8
-5 0 -7 -5 -3 -11 4 -8 0 -8 -15 0 -12 7 -26 9 -31 6 -6 -3 -10 -2 -10 2 0 5
-25 9 -55 8 -30 0 -55 3 -55 7 0 3 -8 5 -17 3 -10 -1 -22 0 -28 4 -5 3 -26 6
-46 7 -20 0 -41 4 -46 7 -6 4 -14 1 -16 -5 -4 -10 -6 -10 -6 0 -1 7 -5 10 -11
7 -5 -3 -10 -1 -10 4 0 6 -5 11 -11 11 -5 0 -8 -4 -4 -9 3 -6 -6 -7 -22 -2
-16 4 -35 7 -43 6 -8 -1 -23 3 -34 8 -13 6 -16 6 -12 -2 10 -15 -7 -14 -22 1
-9 9 -12 9 -12 0 0 -8 -7 -9 -22 -3 -13 4 -29 6 -37 3 -9 -3 -11 0 -7 9 4 8 0
5 -8 -5 -9 -11 -16 -14 -16 -7 0 7 -4 9 -10 6 -5 -3 -10 0 -10 7 0 9 -3 9 -8
2 -8 -13 -42 -15 -42 -2 0 5 -8 5 -17 1 -20 -10 -70 -9 -80 0 -3 4 -12 2 -20
-4 -9 -9 -13 -8 -13 0 0 8 -6 9 -18 2 -11 -6 -24 -6 -35 0 -12 7 -17 6 -17 -3
0 -8 -3 -9 -8 -3 -8 12 -41 13 -59 2 -9 -5 -13 -2 -14 10 0 10 -3 13 -5 7 -3
-6 -18 -10 -35 -8 -22 3 -28 0 -23 -9 5 -8 2 -7 -9 2 -10 8 -20 11 -24 8 -3
-4 -12 -2 -20 4 -10 9 -13 7 -13 -7 0 -17 -1 -17 -15 2 -11 14 -14 15 -15 4 0
-13 -1 -13 -10 0 -5 8 -10 10 -10 5 0 -6 -9 -11 -20 -11 -11 0 -20 5 -20 11 0
5 -5 3 -10 -5 -5 -8 -10 -10 -10 -5 0 6 -33 10 -80 10 -44 0 -80 -4 -80 -9 0
-5 -8 -2 -17 5 -15 12 -16 12 -10 -6 7 -20 7 -20 -8 -1 -8 11 -15 14 -15 7 0
-7 -5 -9 -11 -6 -16 11 -80 12 -86 2 -3 -5 -9 -3 -14 4 -7 11 -9 10 -9 -4 0
-17 -2 -17 -15 -3 -12 11 -22 13 -39 6 -13 -5 -27 -6 -30 -3 -10 10 -156 8
-156 -2 0 -5 -5 -3 -10 5 -8 12 -10 12 -11 -5 l0 -20 -9 20 c-5 11 -9 14 -9 8
-1 -7 -6 -13 -12 -13 -5 0 -8 3 -6 8 3 4 -6 7 -19 7 -13 0 -24 -4 -24 -10 0
-5 -5 -3 -10 5 -8 12 -10 12 -10 1 0 -11 -3 -11 -15 -1 -12 10 -15 9 -15 -6z"/>
</g>
</svg>
