<?xml version="1.0" standalone="no"?>
<!DOCTYPE svg PUBLIC "-//W3C//DTD SVG 20010904//EN"
 "http://www.w3.org/TR/2001/REC-SVG-20010904/DTD/svg10.dtd">
<svg version="1.0" xmlns="http://www.w3.org/2000/svg"
 width="3558.000000pt" height="2000.000000pt" viewBox="0 0 3558.000000 2000.000000"
 preserveAspectRatio="xMidYMid meet">
<metadata>
Created by potrace 1.15, written by Peter Selinger 2001-2017
</metadata>
<g transform="translate(0.000000,2000.000000) scale(0.100000,-0.100000)"
fill="#000000" stroke="none">
<path d="M20788 15070 c-169 -22 -254 -41 -383 -85 -231 -78 -445 -205 -620
-367 -240 -223 -383 -414 -510 -683 -242 -510 -286 -1123 -107 -1507 22 -46
60 -110 85 -143 86 -114 234 -222 364 -266 71 -25 100 -29 187 -29 171 0 295
34 511 140 481 235 988 721 1364 1310 23 36 80 142 126 235 228 460 255 804
84 1056 -75 111 -174 201 -273 249 -209 99 -511 132 -828 90z"/>
<path d="M17643 14709 c-80 -12 -224 -62 -288 -101 -182 -111 -318 -298 -384
-529 -43 -147 -54 -238 -54 -434 0 -190 11 -285 53 -460 83 -348 227 -591 435
-732 115 -77 142 -88 230 -88 75 0 85 3 149 39 238 134 479 577 577 1061 103
512 38 869 -206 1110 -125 125 -285 166 -512 134z"/>
<path d="M15615 13885 c-186 -40 -370 -179 -458 -342 -120 -225 -114 -604 14
-923 121 -303 299 -537 514 -678 329 -215 537 -57 647 493 19 96 22 143 23
360 0 261 -6 321 -56 517 -51 205 -214 452 -349 531 -92 54 -213 69 -335 42z"/>
<path d="M14055 12601 c-144 -51 -312 -216 -364 -356 -81 -216 -33 -530 121
-790 188 -316 506 -584 755 -634 65 -13 152 7 203 48 168 133 188 644 43 1081
-104 312 -326 604 -500 656 -66 20 -197 17 -258 -5z"/>
<path d="M18150 11640 c-74 -5 -166 -13 -205 -19 -38 -6 -140 -20 -225 -31
-85 -11 -175 -24 -200 -29 -192 -39 -393 -83 -413 -90 -13 -5 -55 -17 -93 -26
-96 -24 -378 -115 -504 -163 -457 -176 -856 -399 -1180 -660 -115 -93 -384
-359 -467 -462 -256 -319 -408 -639 -485 -1023 -32 -158 -33 -169 -33 -417 0
-233 3 -269 28 -413 54 -311 106 -486 233 -787 215 -509 567 -1017 996 -1436
171 -167 409 -376 494 -434 13 -8 80 -56 151 -106 399 -282 823 -487 1238
-598 195 -52 278 -67 515 -91 204 -21 338 -19 532 10 268 38 501 117 778 262
541 284 1030 797 1267 1328 140 314 206 630 158 765 -19 55 -95 162 -157 222
-132 129 -340 188 -658 188 -473 0 -941 -154 -1139 -377 -73 -82 -81 -112 -79
-333 1 -161 -1 -193 -19 -250 -50 -159 -91 -228 -194 -326 -69 -65 -104 -85
-209 -119 -237 -76 -507 11 -794 256 -301 256 -362 519 -186 808 95 156 224
288 455 466 214 164 321 234 1095 715 732 455 1071 723 1374 1083 148 177 260
399 307 607 24 109 26 332 4 449 -34 175 -135 351 -300 516 -184 185 -400 303
-725 395 -188 54 -324 79 -590 111 -110 13 -614 19 -770 9z"/>
</g>
</svg>
