<?xml version="1.0" standalone="no"?>
<!DOCTYPE svg PUBLIC "-//W3C//DTD SVG 20010904//EN"
 "http://www.w3.org/TR/2001/REC-SVG-20010904/DTD/svg10.dtd">
<svg version="1.0" xmlns="http://www.w3.org/2000/svg"
 width="827.000000pt" height="1017.000000pt" viewBox="0 0 827.000000 1017.000000"
 preserveAspectRatio="xMidYMid meet">

<g transform="translate(0.000000,1017.000000) scale(0.100000,-0.100000)"
fill="#000000" stroke="none">
<path d="M7138 10150 c-169 -23 -253 -41 -386 -86 -324 -109 -608 -308 -836
-586 -131 -161 -196 -263 -286 -453 -283 -595 -295 -1288 -27 -1640 83 -109
159 -162 297 -205 110 -35 197 -39 311 -14 230 49 439 150 721 346 163 115
460 393 631 592 137 160 178 212 283 363 232 335 368 646 410 939 14 94 15
130 6 193 -18 124 -53 221 -107 291 -117 152 -276 227 -563 264 -152 20 -281
19 -454 -4z"/>
<path d="M3998 9789 c-78 -11 -230 -63 -295 -100 -179 -103 -312 -288 -383
-532 -42 -144 -53 -237 -53 -427 1 -183 16 -303 61 -480 109 -428 341 -724
567 -725 279 -1 606 502 734 1130 58 283 63 487 15 679 -33 132 -53 181 -103
254 -114 169 -299 237 -543 201z"/>
<path d="M1965 8966 c-232 -54 -415 -209 -494 -420 -130 -348 -5 -882 295
-1256 138 -172 271 -262 408 -276 161 -16 301 135 381 411 26 92 52 221 62
310 7 66 6 418 -2 484 -7 66 -41 230 -60 299 -42 142 -142 306 -231 375 -93
73 -235 101 -359 73z"/>
<path d="M405 7681 c-160 -59 -307 -202 -362 -351 -118 -316 25 -747 357
-1081 246 -247 479 -328 629 -219 49 36 105 145 127 250 18 81 24 333 11 430
-4 30 -9 69 -12 85 -12 94 -20 130 -56 252 -34 117 -97 274 -129 323 -5 8 -17
28 -26 45 -34 60 -128 166 -186 210 -33 25 -83 52 -111 60 -69 21 -180 19
-242 -4z"/>
<path d="M4500 6720 c-74 -5 -166 -13 -205 -19 -38 -6 -140 -20 -225 -31 -169
-21 -170 -22 -410 -74 -709 -153 -1360 -431 -1848 -790 -283 -207 -530 -453
-707 -703 -135 -190 -275 -484 -338 -713 -100 -357 -101 -773 -3 -1195 40
-169 120 -416 175 -538 10 -23 30 -69 44 -102 104 -247 308 -586 519 -864 227
-299 581 -655 882 -886 102 -79 275 -198 371 -255 50 -30 97 -59 105 -66 31
-25 330 -172 440 -217 281 -114 560 -195 780 -226 129 -19 362 -41 428 -41
151 0 440 50 617 107 352 113 661 287 975 551 137 115 387 391 505 558 152
216 300 531 364 776 56 216 61 265 36 363 -60 230 -323 355 -747 355 -325 0
-661 -79 -917 -215 -112 -59 -227 -162 -262 -232 -22 -45 -24 -59 -25 -248 -1
-171 -4 -209 -21 -265 -49 -156 -91 -228 -189 -321 -67 -64 -114 -91 -214
-124 -271 -88 -605 38 -910 345 -177 178 -250 326 -250 506 0 163 56 287 213
469 99 114 299 286 475 406 156 107 435 289 473 309 13 7 56 33 94 58 113 72
135 86 235 147 52 32 118 72 145 90 28 17 78 49 113 71 78 48 437 286 512 338
178 125 475 373 591 493 80 83 212 244 268 327 265 393 304 844 104 1185 -52
88 -208 244 -315 313 -286 188 -607 287 -1128 349 -111 13 -595 19 -750 9z"/>
</g>
</svg>
